Iksir-Italic.ufo
<glyph name="exclam" format="2">
  <advance width="221"/>
  <unicode hex="0021"/>
  <outline>
    <contour>
      <point x="138" y="697" type="line"/>
      <point x="138" y="697" type="line"/>
      <point x="125" y="634" type="line"/>
      <point x="188" y="634" type="line"/>
      <point x="201" y="697" type="line"/>
    </contour>
    <contour>
      <point x="201" y="697" type="line"/>
      <point x="201" y="697" type="line"/>
      <point x="188" y="634" type="line"/>
      <point x="251" y="634" type="line"/>
      <point x="264" y="697" type="line"/>
    </contour>
    <contour>
      <point x="125" y="634" type="line"/>
      <point x="125" y="634" type="line"/>
      <point x="111" y="571" type="line"/>
      <point x="174" y="571" type="line"/>
      <point x="188" y="634" type="line"/>
    </contour>
    <contour>
      <point x="188" y="634" type="line"/>
      <point x="188" y="634" type="line"/>
      <point x="174" y="571" type="line"/>
      <point x="237" y="571" type="line"/>
      <point x="251" y="634" type="line"/>
    </contour>
    <contour>
      <point x="111" y="571" type="line"/>
      <point x="111" y="571" type="line"/>
      <point x="98" y="508" type="line"/>
      <point x="161" y="508" type="line"/>
      <point x="174" y="571" type="line"/>
    </contour>
    <contour>
      <point x="174" y="571" type="line"/>
      <point x="174" y="571" type="line"/>
      <point x="161" y="508" type="line"/>
      <point x="224" y="508" type="line"/>
      <point x="237" y="571" type="line"/>
    </contour>
    <contour>
      <point x="98" y="508" type="line"/>
      <point x="98" y="508" type="line"/>
      <point x="84" y="445" type="line"/>
      <point x="147" y="445" type="line"/>
      <point x="161" y="508" type="line"/>
    </contour>
    <contour>
      <point x="161" y="508" type="line"/>
      <point x="161" y="508" type="line"/>
      <point x="147" y="445" type="line"/>
      <point x="210" y="445" type="line"/>
      <point x="224" y="508" type="line"/>
    </contour>
    <contour>
      <point x="84" y="445" type="line"/>
      <point x="84" y="445" type="line"/>
      <point x="71" y="383" type="line"/>
      <point x="134" y="383" type="line"/>
      <point x="147" y="445" type="line"/>
    </contour>
    <contour>
      <point x="147" y="445" type="line"/>
      <point x="147" y="445" type="line"/>
      <point x="134" y="383" type="line"/>
      <point x="197" y="383" type="line"/>
      <point x="210" y="445" type="line"/>
    </contour>
    <contour>
      <point x="71" y="383" type="line"/>
      <point x="71" y="383" type="line"/>
      <point x="58" y="320" type="line"/>
      <point x="121" y="320" type="line"/>
      <point x="134" y="383" type="line"/>
    </contour>
    <contour>
      <point x="134" y="383" type="line"/>
      <point x="134" y="383" type="line"/>
      <point x="121" y="320" type="line"/>
      <point x="184" y="320" type="line"/>
      <point x="197" y="383" type="line"/>
    </contour>
    <contour>
      <point x="58" y="320" type="line"/>
      <point x="58" y="320" type="line"/>
      <point x="44" y="257" type="line"/>
      <point x="107" y="257" type="line"/>
      <point x="121" y="320" type="line"/>
    </contour>
    <contour>
      <point x="121" y="320" type="line"/>
      <point x="121" y="320" type="line"/>
      <point x="107" y="257" type="line"/>
      <point x="170" y="257" type="line"/>
      <point x="184" y="320" type="line"/>
    </contour>
    <contour>
      <point x="44" y="257" type="line"/>
      <point x="44" y="257" type="line"/>
      <point x="31" y="194" type="line"/>
      <point x="94" y="194" type="line"/>
      <point x="107" y="257" type="line"/>
    </contour>
    <contour>
      <point x="107" y="257" type="line"/>
      <point x="107" y="257" type="line"/>
      <point x="94" y="194" type="line"/>
      <point x="157" y="194" type="line"/>
      <point x="170" y="257" type="line"/>
    </contour>
    <contour>
      <point x="31" y="194" type="line"/>
      <point x="31" y="194" type="line"/>
      <point x="18" y="131" type="line"/>
      <point x="81" y="131" type="line"/>
      <point x="94" y="194" type="line"/>
    </contour>
    <contour>
      <point x="94" y="194" type="line"/>
      <point x="94" y="194" type="line"/>
      <point x="81" y="131" type="line"/>
      <point x="144" y="131" type="line"/>
      <point x="157" y="194" type="line"/>
    </contour>
    <contour>
      <point x="4" y="68" type="line"/>
      <point x="4" y="68" type="line"/>
      <point x="-9" y="5" type="line"/>
      <point x="54" y="5" type="line"/>
      <point x="67" y="68" type="line"/>
    </contour>
    <contour>
      <point x="67" y="68" type="line"/>
      <point x="67" y="68" type="line"/>
      <point x="54" y="5" type="line"/>
      <point x="117" y="5" type="line"/>
      <point x="130" y="68" type="line"/>
    </contour>
  </outline>
</glyph>
<glyph name="quotedbl" format="2">
  <advance width="406"/>
  <unicode hex="0022"/>
  <outline>
    <contour>
      <point x="163" y="817" type="line"/>
      <point x="163" y="817" type="line"/>
      <point x="150" y="755" type="line"/>
      <point x="212" y="755" type="line"/>
      <point x="225" y="817" type="line"/>
    </contour>
    <contour>
      <point x="225" y="817" type="line"/>
      <point x="225" y="817" type="line"/>
      <point x="212" y="755" type="line"/>
      <point x="274" y="755" type="line"/>
      <point x="287" y="817" type="line"/>
    </contour>
    <contour>
      <point x="349" y="817" type="line"/>
      <point x="349" y="817" type="line"/>
      <point x="336" y="755" type="line"/>
      <point x="399" y="755" type="line"/>
      <point x="412" y="817" type="line"/>
    </contour>
    <contour>
      <point x="412" y="817" type="line"/>
      <point x="412" y="817" type="line"/>
      <point x="399" y="755" type="line"/>
      <point x="461" y="755" type="line"/>
      <point x="474" y="817" type="line"/>
    </contour>
    <contour>
      <point x="150" y="755" type="line"/>
      <point x="150" y="755" type="line"/>
      <point x="137" y="693" type="line"/>
      <point x="199" y="693" type="line"/>
      <point x="212" y="755" type="line"/>
    </contour>
    <contour>
      <point x="212" y="755" type="line"/>
      <point x="212" y="755" type="line"/>
      <point x="199" y="693" type="line"/>
      <point x="261" y="693" type="line"/>
      <point x="274" y="755" type="line"/>
    </contour>
    <contour>
      <point x="336" y="755" type="line"/>
      <point x="336" y="755" type="line"/>
      <point x="323" y="693" type="line"/>
      <point x="386" y="693" type="line"/>
      <point x="399" y="755" type="line"/>
    </contour>
    <contour>
      <point x="399" y="755" type="line"/>
      <point x="399" y="755" type="line"/>
      <point x="386" y="693" type="line"/>
      <point x="448" y="693" type="line"/>
      <point x="461" y="755" type="line"/>
    </contour>
    <contour>
      <point x="137" y="693" type="line"/>
      <point x="137" y="693" type="line"/>
      <point x="124" y="631" type="line"/>
      <point x="186" y="631" type="line"/>
      <point x="199" y="693" type="line"/>
    </contour>
    <contour>
      <point x="199" y="693" type="line"/>
      <point x="199" y="693" type="line"/>
      <point x="186" y="631" type="line"/>
      <point x="248" y="631" type="line"/>
      <point x="261" y="693" type="line"/>
    </contour>
    <contour>
      <point x="323" y="693" type="line"/>
      <point x="323" y="693" type="line"/>
      <point x="310" y="631" type="line"/>
      <point x="373" y="631" type="line"/>
      <point x="386" y="693" type="line"/>
    </contour>
    <contour>
      <point x="386" y="693" type="line"/>
      <point x="386" y="693" type="line"/>
      <point x="373" y="631" type="line"/>
      <point x="435" y="631" type="line"/>
      <point x="448" y="693" type="line"/>
    </contour>
    <contour>
      <point x="124" y="631" type="line"/>
      <point x="124" y="631" type="line"/>
      <point x="111" y="569" type="line"/>
      <point x="173" y="569" type="line"/>
      <point x="186" y="631" type="line"/>
    </contour>
    <contour>
      <point x="186" y="631" type="line"/>
      <point x="186" y="631" type="line"/>
      <point x="173" y="569" type="line"/>
      <point x="235" y="569" type="line"/>
      <point x="248" y="631" type="line"/>
    </contour>
    <contour>
      <point x="310" y="631" type="line"/>
      <point x="310" y="631" type="line"/>
      <point x="297" y="569" type="line"/>
      <point x="360" y="569" type="line"/>
      <point x="373" y="631" type="line"/>
    </contour>
    <contour>
      <point x="373" y="631" type="line"/>
      <point x="373" y="631" type="line"/>
      <point x="360" y="569" type="line"/>
      <point x="422" y="569" type="line"/>
      <point x="435" y="631" type="line"/>
    </contour>
  </outline>
</glyph>
<glyph name="numbersign" format="2">
  <advance width="724"/>
  <unicode hex="0023"/>
  <outline>
    <contour>
      <point x="389" y="696" type="line"/>
      <point x="389" y="696" type="line"/>
      <point x="375" y="633" type="line"/>
      <point x="438" y="633" type="line"/>
      <point x="452" y="696" type="line"/>
    </contour>
    <contour>
      <point x="452" y="696" type="line"/>
      <point x="452" y="696" type="line"/>
      <point x="438" y="633" type="line"/>
      <point x="501" y="633" type="line"/>
      <point x="515" y="696" type="line"/>
    </contour>
    <contour>
      <point x="578" y="696" type="line"/>
      <point x="578" y="696" type="line"/>
      <point x="564" y="633" type="line"/>
      <point x="627" y="633" type="line"/>
      <point x="641" y="696" type="line"/>
    </contour>
    <contour>
      <point x="641" y="696" type="line"/>
      <point x="641" y="696" type="line"/>
      <point x="627" y="633" type="line"/>
      <point x="690" y="633" type="line"/>
      <point x="704" y="696" type="line"/>
    </contour>
    <contour>
      <point x="375" y="633" type="line"/>
      <point x="375" y="633" type="line"/>
      <point x="362" y="570" type="line"/>
      <point x="425" y="570" type="line"/>
      <point x="438" y="633" type="line"/>
    </contour>
    <contour>
      <point x="438" y="633" type="line"/>
      <point x="438" y="633" type="line"/>
      <point x="425" y="570" type="line"/>
      <point x="488" y="570" type="line"/>
      <point x="501" y="633" type="line"/>
    </contour>
    <contour>
      <point x="564" y="633" type="line"/>
      <point x="564" y="633" type="line"/>
      <point x="551" y="570" type="line"/>
      <point x="614" y="570" type="line"/>
      <point x="627" y="633" type="line"/>
    </contour>
    <contour>
      <point x="627" y="633" type="line"/>
      <point x="627" y="633" type="line"/>
      <point x="614" y="570" type="line"/>
      <point x="677" y="570" type="line"/>
      <point x="690" y="633" type="line"/>
    </contour>
    <contour>
      <point x="299" y="570" type="line"/>
      <point x="299" y="570" type="line"/>
      <point x="286" y="507" type="line"/>
      <point x="349" y="507" type="line"/>
      <point x="362" y="570" type="line"/>
    </contour>
    <contour>
      <point x="362" y="570" type="line"/>
      <point x="362" y="570" type="line"/>
      <point x="349" y="507" type="line"/>
      <point x="412" y="507" type="line"/>
      <point x="425" y="570" type="line"/>
    </contour>
    <contour>
      <point x="488" y="570" type="line"/>
      <point x="488" y="570" type="line"/>
      <point x="475" y="507" type="line"/>
      <point x="538" y="507" type="line"/>
      <point x="551" y="570" type="line"/>
    </contour>
    <contour>
      <point x="551" y="570" type="line"/>
      <point x="551" y="570" type="line"/>
      <point x="538" y="507" type="line"/>
      <point x="601" y="507" type="line"/>
      <point x="614" y="570" type="line"/>
    </contour>
    <contour>
      <point x="97" y="507" type="line"/>
      <point x="97" y="507" type="line"/>
      <point x="83" y="444" type="line"/>
      <point x="146" y="444" type="line"/>
      <point x="160" y="507" type="line"/>
    </contour>
    <contour>
      <point x="160" y="507" type="line"/>
      <point x="160" y="507" type="line"/>
      <point x="146" y="444" type="line"/>
      <point x="209" y="444" type="line"/>
      <point x="223" y="507" type="line"/>
    </contour>
    <contour>
      <point x="223" y="507" type="line"/>
      <point x="223" y="507" type="line"/>
      <point x="209" y="444" type="line"/>
      <point x="272" y="444" type="line"/>
      <point x="286" y="507" type="line"/>
    </contour>
    <contour>
      <point x="286" y="507" type="line"/>
      <point x="286" y="507" type="line"/>
      <point x="272" y="444" type="line"/>
      <point x="335" y="444" type="line"/>
      <point x="349" y="507" type="line"/>
    </contour>
    <contour>
      <point x="349" y="507" type="line"/>
      <point x="349" y="507" type="line"/>
      <point x="335" y="444" type="line"/>
      <point x="398" y="444" type="line"/>
      <point x="412" y="507" type="line"/>
    </contour>
    <contour>
      <point x="412" y="507" type="line"/>
      <point x="412" y="507" type="line"/>
      <point x="398" y="444" type="line"/>
      <point x="461" y="444" type="line"/>
      <point x="475" y="507" type="line"/>
    </contour>
    <contour>
      <point x="475" y="507" type="line"/>
      <point x="475" y="507" type="line"/>
      <point x="461" y="444" type="line"/>
      <point x="524" y="444" type="line"/>
      <point x="538" y="507" type="line"/>
    </contour>
    <contour>
      <point x="538" y="507" type="line"/>
      <point x="538" y="507" type="line"/>
      <point x="524" y="444" type="line"/>
      <point x="587" y="444" type="line"/>
      <point x="601" y="507" type="line"/>
    </contour>
    <contour>
      <point x="601" y="507" type="line"/>
      <point x="601" y="507" type="line"/>
      <point x="587" y="444" type="line"/>
      <point x="650" y="444" type="line"/>
      <point x="664" y="507" type="line"/>
    </contour>
    <contour>
      <point x="664" y="507" type="line"/>
      <point x="664" y="507" type="line"/>
      <point x="650" y="444" type="line"/>
      <point x="713" y="444" type="line"/>
      <point x="727" y="507" type="line"/>
    </contour>
    <contour>
      <point x="272" y="444" type="line"/>
      <point x="272" y="444" type="line"/>
      <point x="259" y="381" type="line"/>
      <point x="322" y="381" type="line"/>
      <point x="335" y="444" type="line"/>
    </contour>
    <contour>
      <point x="335" y="444" type="line"/>
      <point x="335" y="444" type="line"/>
      <point x="322" y="381" type="line"/>
      <point x="385" y="381" type="line"/>
      <point x="398" y="444" type="line"/>
    </contour>
    <contour>
      <point x="461" y="444" type="line"/>
      <point x="461" y="444" type="line"/>
      <point x="448" y="381" type="line"/>
      <point x="511" y="381" type="line"/>
      <point x="524" y="444" type="line"/>
    </contour>
    <contour>
      <point x="524" y="444" type="line"/>
      <point x="524" y="444" type="line"/>
      <point x="511" y="381" type="line"/>
      <point x="574" y="381" type="line"/>
      <point x="587" y="444" type="line"/>
    </contour>
    <contour>
      <point x="196" y="381" type="line"/>
      <point x="196" y="381" type="line"/>
      <point x="182" y="318" type="line"/>
      <point x="245" y="318" type="line"/>
      <point x="259" y="381" type="line"/>
    </contour>
    <contour>
      <point x="259" y="381" type="line"/>
      <point x="259" y="381" type="line"/>
      <point x="245" y="318" type="line"/>
      <point x="308" y="318" type="line"/>
      <point x="322" y="381" type="line"/>
    </contour>
    <contour>
      <point x="385" y="381" type="line"/>
      <point x="385" y="381" type="line"/>
      <point x="371" y="318" type="line"/>
      <point x="434" y="318" type="line"/>
      <point x="448" y="381" type="line"/>
    </contour>
    <contour>
      <point x="448" y="381" type="line"/>
      <point x="448" y="381" type="line"/>
      <point x="434" y="318" type="line"/>
      <point x="497" y="318" type="line"/>
      <point x="511" y="381" type="line"/>
    </contour>
    <contour>
      <point x="182" y="318" type="line"/>
      <point x="182" y="318" type="line"/>
      <point x="169" y="255" type="line"/>
      <point x="232" y="255" type="line"/>
      <point x="245" y="318" type="line"/>
    </contour>
    <contour>
      <point x="245" y="318" type="line"/>
      <point x="245" y="318" type="line"/>
      <point x="232" y="255" type="line"/>
      <point x="295" y="255" type="line"/>
      <point x="308" y="318" type="line"/>
    </contour>
    <contour>
      <point x="371" y="318" type="line"/>
      <point x="371" y="318" type="line"/>
      <point x="358" y="255" type="line"/>
      <point x="421" y="255" type="line"/>
      <point x="434" y="318" type="line"/>
    </contour>
    <contour>
      <point x="434" y="318" type="line"/>
      <point x="434" y="318" type="line"/>
      <point x="421" y="255" type="line"/>
      <point x="484" y="255" type="line"/>
      <point x="497" y="318" type="line"/>
    </contour>
    <contour>
      <point x="43" y="255" type="line"/>
      <point x="43" y="255" type="line"/>
      <point x="30" y="192" type="line"/>
      <point x="93" y="192" type="line"/>
      <point x="106" y="255" type="line"/>
    </contour>
    <contour>
      <point x="106" y="255" type="line"/>
      <point x="106" y="255" type="line"/>
      <point x="93" y="192" type="line"/>
      <point x="156" y="192" type="line"/>
      <point x="169" y="255" type="line"/>
    </contour>
    <contour>
      <point x="169" y="255" type="line"/>
      <point x="169" y="255" type="line"/>
      <point x="156" y="192" type="line"/>
      <point x="219" y="192" type="line"/>
      <point x="232" y="255" type="line"/>
    </contour>
    <contour>
      <point x="232" y="255" type="line"/>
      <point x="232" y="255" type="line"/>
      <point x="219" y="192" type="line"/>
      <point x="282" y="192" type="line"/>
      <point x="295" y="255" type="line"/>
    </contour>
    <contour>
      <point x="295" y="255" type="line"/>
      <point x="295" y="255" type="line"/>
      <point x="282" y="192" type="line"/>
      <point x="345" y="192" type="line"/>
      <point x="358" y="255" type="line"/>
    </contour>
    <contour>
      <point x="358" y="255" type="line"/>
      <point x="358" y="255" type="line"/>
      <point x="345" y="192" type="line"/>
      <point x="408" y="192" type="line"/>
      <point x="421" y="255" type="line"/>
    </contour>
    <contour>
      <point x="421" y="255" type="line"/>
      <point x="421" y="255" type="line"/>
      <point x="408" y="192" type="line"/>
      <point x="471" y="192" type="line"/>
      <point x="484" y="255" type="line"/>
    </contour>
    <contour>
      <point x="484" y="255" type="line"/>
      <point x="484" y="255" type="line"/>
      <point x="471" y="192" type="line"/>
      <point x="534" y="192" type="line"/>
      <point x="547" y="255" type="line"/>
    </contour>
    <contour>
      <point x="547" y="255" type="line"/>
      <point x="547" y="255" type="line"/>
      <point x="534" y="192" type="line"/>
      <point x="597" y="192" type="line"/>
      <point x="610" y="255" type="line"/>
    </contour>
    <contour>
      <point x="610" y="255" type="line"/>
      <point x="610" y="255" type="line"/>
      <point x="597" y="192" type="line"/>
      <point x="660" y="192" type="line"/>
      <point x="673" y="255" type="line"/>
    </contour>
    <contour>
      <point x="156" y="192" type="line"/>
      <point x="156" y="192" type="line"/>
      <point x="142" y="129" type="line"/>
      <point x="205" y="129" type="line"/>
      <point x="219" y="192" type="line"/>
    </contour>
    <contour>
      <point x="219" y="192" type="line"/>
      <point x="219" y="192" type="line"/>
      <point x="205" y="129" type="line"/>
      <point x="268" y="129" type="line"/>
      <point x="282" y="192" type="line"/>
    </contour>
    <contour>
      <point x="345" y="192" type="line"/>
      <point x="345" y="192" type="line"/>
      <point x="331" y="129" type="line"/>
      <point x="394" y="129" type="line"/>
      <point x="408" y="192" type="line"/>
    </contour>
    <contour>
      <point x="408" y="192" type="line"/>
      <point x="408" y="192" type="line"/>
      <point x="394" y="129" type="line"/>
      <point x="457" y="129" type="line"/>
      <point x="471" y="192" type="line"/>
    </contour>
    <contour>
      <point x="79" y="129" type="line"/>
      <point x="79" y="129" type="line"/>
      <point x="66" y="66" type="line"/>
      <point x="129" y="66" type="line"/>
      <point x="142" y="129" type="line"/>
    </contour>
    <contour>
      <point x="142" y="129" type="line"/>
      <point x="142" y="129" type="line"/>
      <point x="129" y="66" type="line"/>
      <point x="192" y="66" type="line"/>
      <point x="205" y="129" type="line"/>
    </contour>
    <contour>
      <point x="268" y="129" type="line"/>
      <point x="268" y="129" type="line"/>
      <point x="255" y="66" type="line"/>
      <point x="318" y="66" type="line"/>
      <point x="331" y="129" type="line"/>
    </contour>
    <contour>
      <point x="331" y="129" type="line"/>
      <point x="331" y="129" type="line"/>
      <point x="318" y="66" type="line"/>
      <point x="381" y="66" type="line"/>
      <point x="394" y="129" type="line"/>
    </contour>
    <contour>
      <point x="66" y="66" type="line"/>
      <point x="66" y="66" type="line"/>
      <point x="52" y="3" type="line"/>
      <point x="115" y="3" type="line"/>
      <point x="129" y="66" type="line"/>
    </contour>
    <contour>
      <point x="129" y="66" type="line"/>
      <point x="129" y="66" type="line"/>
      <point x="115" y="3" type="line"/>
      <point x="178" y="3" type="line"/>
      <point x="192" y="66" type="line"/>
    </contour>
    <contour>
      <point x="255" y="66" type="line"/>
      <point x="255" y="66" type="line"/>
      <point x="241" y="3" type="line"/>
      <point x="304" y="3" type="line"/>
      <point x="318" y="66" type="line"/>
    </contour>
    <contour>
      <point x="318" y="66" type="line"/>
      <point x="318" y="66" type="line"/>
      <point x="304" y="3" type="line"/>
      <point x="367" y="3" type="line"/>
      <point x="381" y="66" type="line"/>
    </contour>
  </outline>
</glyph>
<glyph name="dollar" format="2">
  <advance width="557"/>
  <unicode hex="0024"/>
  <outline>
    <contour>
      <point x="311" y="698" type="line"/>
      <point x="311" y="698" type="line"/>
      <point x="299" y="640" type="line"/>
      <point x="357" y="640" type="line"/>
      <point x="369" y="698" type="line"/>
    </contour>
    <contour>
      <point x="369" y="698" type="line"/>
      <point x="369" y="698" type="line"/>
      <point x="357" y="640" type="line"/>
      <point x="415" y="640" type="line"/>
      <point x="427" y="698" type="line"/>
    </contour>
    <contour>
      <point x="184" y="640" type="line"/>
      <point x="184" y="640" type="line"/>
      <point x="172" y="582" type="line"/>
      <point x="230" y="582" type="line"/>
      <point x="242" y="640" type="line"/>
    </contour>
    <contour>
      <point x="242" y="640" type="line"/>
      <point x="242" y="640" type="line"/>
      <point x="230" y="582" type="line"/>
      <point x="287" y="582" type="line"/>
      <point x="299" y="640" type="line"/>
    </contour>
    <contour>
      <point x="299" y="640" type="line"/>
      <point x="299" y="640" type="line"/>
      <point x="287" y="582" type="line"/>
      <point x="345" y="582" type="line"/>
      <point x="357" y="640" type="line"/>
    </contour>
    <contour>
      <point x="357" y="640" type="line"/>
      <point x="357" y="640" type="line"/>
      <point x="345" y="582" type="line"/>
      <point x="403" y="582" type="line"/>
      <point x="415" y="640" type="line"/>
    </contour>
    <contour>
      <point x="415" y="640" type="line"/>
      <point x="415" y="640" type="line"/>
      <point x="403" y="582" type="line"/>
      <point x="461" y="582" type="line"/>
      <point x="473" y="640" type="line"/>
    </contour>
    <contour>
      <point x="473" y="640" type="line"/>
      <point x="473" y="640" type="line"/>
      <point x="461" y="582" type="line"/>
      <point x="519" y="582" type="line"/>
      <point x="531" y="640" type="line"/>
    </contour>
    <contour>
      <point x="114" y="582" type="line"/>
      <point x="114" y="582" type="line"/>
      <point x="101" y="524" type="line"/>
      <point x="159" y="524" type="line"/>
      <point x="172" y="582" type="line"/>
    </contour>
    <contour>
      <point x="172" y="582" type="line"/>
      <point x="172" y="582" type="line"/>
      <point x="159" y="524" type="line"/>
      <point x="217" y="524" type="line"/>
      <point x="230" y="582" type="line"/>
    </contour>
    <contour>
      <point x="287" y="582" type="line"/>
      <point x="287" y="582" type="line"/>
      <point x="274" y="524" type="line"/>
      <point x="332" y="524" type="line"/>
      <point x="345" y="582" type="line"/>
    </contour>
    <contour>
      <point x="345" y="582" type="line"/>
      <point x="345" y="582" type="line"/>
      <point x="332" y="524" type="line"/>
      <point x="390" y="524" type="line"/>
      <point x="403" y="582" type="line"/>
    </contour>
    <contour>
      <point x="403" y="582" type="line"/>
      <point x="403" y="582" type="line"/>
      <point x="390" y="524" type="line"/>
      <point x="448" y="524" type="line"/>
      <point x="461" y="582" type="line"/>
    </contour>
    <contour>
      <point x="461" y="582" type="line"/>
      <point x="461" y="582" type="line"/>
      <point x="448" y="524" type="line"/>
      <point x="506" y="524" type="line"/>
      <point x="519" y="582" type="line"/>
    </contour>
    <contour>
      <point x="519" y="582" type="line"/>
      <point x="519" y="582" type="line"/>
      <point x="506" y="524" type="line"/>
      <point x="563" y="524" type="line"/>
      <point x="576" y="582" type="line"/>
    </contour>
    <contour>
      <point x="101" y="524" type="line"/>
      <point x="101" y="524" type="line"/>
      <point x="89" y="466" type="line"/>
      <point x="147" y="466" type="line"/>
      <point x="159" y="524" type="line"/>
    </contour>
    <contour>
      <point x="159" y="524" type="line"/>
      <point x="159" y="524" type="line"/>
      <point x="147" y="466" type="line"/>
      <point x="205" y="466" type="line"/>
      <point x="217" y="524" type="line"/>
    </contour>
    <contour>
      <point x="274" y="524" type="line"/>
      <point x="274" y="524" type="line"/>
      <point x="262" y="466" type="line"/>
      <point x="320" y="466" type="line"/>
      <point x="332" y="524" type="line"/>
    </contour>
    <contour>
      <point x="332" y="524" type="line"/>
      <point x="332" y="524" type="line"/>
      <point x="320" y="466" type="line"/>
      <point x="378" y="466" type="line"/>
      <point x="390" y="524" type="line"/>
    </contour>
    <contour>
      <point x="448" y="524" type="line"/>
      <point x="448" y="524" type="line"/>
      <point x="436" y="466" type="line"/>
      <point x="494" y="466" type="line"/>
      <point x="506" y="524" type="line"/>
    </contour>
    <contour>
      <point x="506" y="524" type="line"/>
      <point x="506" y="524" type="line"/>
      <point x="494" y="466" type="line"/>
      <point x="551" y="466" type="line"/>
      <point x="563" y="524" type="line"/>
    </contour>
    <contour>
      <point x="89" y="466" type="line"/>
      <point x="89" y="466" type="line"/>
      <point x="77" y="409" type="line"/>
      <point x="135" y="409" type="line"/>
      <point x="147" y="466" type="line"/>
    </contour>
    <contour>
      <point x="147" y="466" type="line"/>
      <point x="147" y="466" type="line"/>
      <point x="135" y="409" type="line"/>
      <point x="193" y="409" type="line"/>
      <point x="205" y="466" type="line"/>
    </contour>
    <contour>
      <point x="262" y="466" type="line"/>
      <point x="262" y="466" type="line"/>
      <point x="250" y="409" type="line"/>
      <point x="308" y="409" type="line"/>
      <point x="320" y="466" type="line"/>
    </contour>
    <contour>
      <point x="320" y="466" type="line"/>
      <point x="320" y="466" type="line"/>
      <point x="308" y="409" type="line"/>
      <point x="366" y="409" type="line"/>
      <point x="378" y="466" type="line"/>
    </contour>
    <contour>
      <point x="135" y="409" type="line"/>
      <point x="135" y="409" type="line"/>
      <point x="122" y="351" type="line"/>
      <point x="180" y="351" type="line"/>
      <point x="193" y="409" type="line"/>
    </contour>
    <contour>
      <point x="193" y="409" type="line"/>
      <point x="193" y="409" type="line"/>
      <point x="180" y="351" type="line"/>
      <point x="237" y="351" type="line"/>
      <point x="250" y="409" type="line"/>
    </contour>
    <contour>
      <point x="250" y="409" type="line"/>
      <point x="250" y="409" type="line"/>
      <point x="237" y="351" type="line"/>
      <point x="295" y="351" type="line"/>
      <point x="308" y="409" type="line"/>
    </contour>
    <contour>
      <point x="308" y="409" type="line"/>
      <point x="308" y="409" type="line"/>
      <point x="295" y="351" type="line"/>
      <point x="353" y="351" type="line"/>
      <point x="366" y="409" type="line"/>
    </contour>
    <contour>
      <point x="237" y="351" type="line"/>
      <point x="237" y="351" type="line"/>
      <point x="225" y="293" type="line"/>
      <point x="283" y="293" type="line"/>
      <point x="295" y="351" type="line"/>
    </contour>
    <contour>
      <point x="295" y="351" type="line"/>
      <point x="295" y="351" type="line"/>
      <point x="283" y="293" type="line"/>
      <point x="341" y="293" type="line"/>
      <point x="353" y="351" type="line"/>
    </contour>
    <contour>
      <point x="353" y="351" type="line"/>
      <point x="353" y="351" type="line"/>
      <point x="341" y="293" type="line"/>
      <point x="399" y="293" type="line"/>
      <point x="411" y="351" type="line"/>
    </contour>
    <contour>
      <point x="411" y="351" type="line"/>
      <point x="411" y="351" type="line"/>
      <point x="399" y="293" type="line"/>
      <point x="457" y="293" type="line"/>
      <point x="469" y="351" type="line"/>
    </contour>
    <contour>
      <point x="225" y="293" type="line"/>
      <point x="225" y="293" type="line"/>
      <point x="213" y="235" type="line"/>
      <point x="271" y="235" type="line"/>
      <point x="283" y="293" type="line"/>
    </contour>
    <contour>
      <point x="283" y="293" type="line"/>
      <point x="283" y="293" type="line"/>
      <point x="271" y="235" type="line"/>
      <point x="329" y="235" type="line"/>
      <point x="341" y="293" type="line"/>
    </contour>
    <contour>
      <point x="399" y="293" type="line"/>
      <point x="399" y="293" type="line"/>
      <point x="387" y="235" type="line"/>
      <point x="445" y="235" type="line"/>
      <point x="457" y="293" type="line"/>
    </contour>
    <contour>
      <point x="457" y="293" type="line"/>
      <point x="457" y="293" type="line"/>
      <point x="445" y="235" type="line"/>
      <point x="502" y="235" type="line"/>
      <point x="514" y="293" type="line"/>
    </contour>
    <contour>
      <point x="40" y="235" type="line"/>
      <point x="40" y="235" type="line"/>
      <point x="27" y="177" type="line"/>
      <point x="85" y="177" type="line"/>
      <point x="98" y="235" type="line"/>
    </contour>
    <contour>
      <point x="98" y="235" type="line"/>
      <point x="98" y="235" type="line"/>
      <point x="85" y="177" type="line"/>
      <point x="143" y="177" type="line"/>
      <point x="156" y="235" type="line"/>
    </contour>
    <contour>
      <point x="213" y="235" type="line"/>
      <point x="213" y="235" type="line"/>
      <point x="200" y="177" type="line"/>
      <point x="258" y="177" type="line"/>
      <point x="271" y="235" type="line"/>
    </contour>
    <contour>
      <point x="271" y="235" type="line"/>
      <point x="271" y="235" type="line"/>
      <point x="258" y="177" type="line"/>
      <point x="316" y="177" type="line"/>
      <point x="329" y="235" type="line"/>
    </contour>
    <contour>
      <point x="387" y="235" type="line"/>
      <point x="387" y="235" type="line"/>
      <point x="374" y="177" type="line"/>
      <point x="432" y="177" type="line"/>
      <point x="445" y="235" type="line"/>
    </contour>
    <contour>
      <point x="445" y="235" type="line"/>
      <point x="445" y="235" type="line"/>
      <point x="432" y="177" type="line"/>
      <point x="489" y="177" type="line"/>
      <point x="502" y="235" type="line"/>
    </contour>
    <contour>
      <point x="27" y="177" type="line"/>
      <point x="27" y="177" type="line"/>
      <point x="15" y="120" type="line"/>
      <point x="73" y="120" type="line"/>
      <point x="85" y="177" type="line"/>
    </contour>
    <contour>
      <point x="85" y="177" type="line"/>
      <point x="85" y="177" type="line"/>
      <point x="73" y="120" type="line"/>
      <point x="131" y="120" type="line"/>
      <point x="143" y="177" type="line"/>
    </contour>
    <contour>
      <point x="200" y="177" type="line"/>
      <point x="200" y="177" type="line"/>
      <point x="188" y="120" type="line"/>
      <point x="246" y="120" type="line"/>
      <point x="258" y="177" type="line"/>
    </contour>
    <contour>
      <point x="258" y="177" type="line"/>
      <point x="258" y="177" type="line"/>
      <point x="246" y="120" type="line"/>
      <point x="304" y="120" type="line"/>
      <point x="316" y="177" type="line"/>
    </contour>
    <contour>
      <point x="374" y="177" type="line"/>
      <point x="374" y="177" type="line"/>
      <point x="362" y="120" type="line"/>
      <point x="420" y="120" type="line"/>
      <point x="432" y="177" type="line"/>
    </contour>
    <contour>
      <point x="432" y="177" type="line"/>
      <point x="432" y="177" type="line"/>
      <point x="420" y="120" type="line"/>
      <point x="477" y="120" type="line"/>
      <point x="489" y="177" type="line"/>
    </contour>
    <contour>
      <point x="73" y="120" type="line"/>
      <point x="73" y="120" type="line"/>
      <point x="61" y="62" type="line"/>
      <point x="119" y="62" type="line"/>
      <point x="131" y="120" type="line"/>
    </contour>
    <contour>
      <point x="131" y="120" type="line"/>
      <point x="131" y="120" type="line"/>
      <point x="119" y="62" type="line"/>
      <point x="176" y="62" type="line"/>
      <point x="188" y="120" type="line"/>
    </contour>
    <contour>
      <point x="188" y="120" type="line"/>
      <point x="188" y="120" type="line"/>
      <point x="176" y="62" type="line"/>
      <point x="234" y="62" type="line"/>
      <point x="246" y="120" type="line"/>
    </contour>
    <contour>
      <point x="246" y="120" type="line"/>
      <point x="246" y="120" type="line"/>
      <point x="234" y="62" type="line"/>
      <point x="292" y="62" type="line"/>
      <point x="304" y="120" type="line"/>
    </contour>
    <contour>
      <point x="304" y="120" type="line"/>
      <point x="304" y="120" type="line"/>
      <point x="292" y="62" type="line"/>
      <point x="350" y="62" type="line"/>
      <point x="362" y="120" type="line"/>
    </contour>
    <contour>
      <point x="362" y="120" type="line"/>
      <point x="362" y="120" type="line"/>
      <point x="350" y="62" type="line"/>
      <point x="408" y="62" type="line"/>
      <point x="420" y="120" type="line"/>
    </contour>
    <contour>
      <point x="176" y="62" type="line"/>
      <point x="176" y="62" type="line"/>
      <point x="164" y="4" type="line"/>
      <point x="222" y="4" type="line"/>
      <point x="234" y="62" type="line"/>
    </contour>
    <contour>
      <point x="234" y="62" type="line"/>
      <point x="234" y="62" type="line"/>
      <point x="222" y="4" type="line"/>
      <point x="280" y="4" type="line"/>
      <point x="292" y="62" type="line"/>
    </contour>
  </outline>
</glyph>
<glyph name="percent" format="2">
  <advance width="976"/>
  <unicode hex="0025"/>
  <outline>
    <contour>
      <point x="200" y="697" type="line"/>
      <point x="200" y="697" type="line"/>
      <point x="187" y="634" type="line"/>
      <point x="250" y="634" type="line"/>
      <point x="263" y="697" type="line"/>
    </contour>
    <contour>
      <point x="263" y="697" type="line"/>
      <point x="263" y="697" type="line"/>
      <point x="250" y="634" type="line"/>
      <point x="313" y="634" type="line"/>
      <point x="326" y="697" type="line"/>
    </contour>
    <contour>
      <point x="326" y="697" type="line"/>
      <point x="326" y="697" type="line"/>
      <point x="313" y="634" type="line"/>
      <point x="376" y="634" type="line"/>
      <point x="389" y="697" type="line"/>
    </contour>
    <contour>
      <point x="389" y="697" type="line"/>
      <point x="389" y="697" type="line"/>
      <point x="376" y="634" type="line"/>
      <point x="439" y="634" type="line"/>
      <point x="452" y="697" type="line"/>
    </contour>
    <contour>
      <point x="704" y="697" type="line"/>
      <point x="704" y="697" type="line"/>
      <point x="691" y="634" type="line"/>
      <point x="754" y="634" type="line"/>
      <point x="767" y="697" type="line"/>
    </contour>
    <contour>
      <point x="767" y="697" type="line"/>
      <point x="767" y="697" type="line"/>
      <point x="754" y="634" type="line"/>
      <point x="817" y="634" type="line"/>
      <point x="830" y="697" type="line"/>
    </contour>
    <contour>
      <point x="124" y="634" type="line"/>
      <point x="124" y="634" type="line"/>
      <point x="110" y="571" type="line"/>
      <point x="173" y="571" type="line"/>
      <point x="187" y="634" type="line"/>
    </contour>
    <contour>
      <point x="187" y="634" type="line"/>
      <point x="187" y="634" type="line"/>
      <point x="173" y="571" type="line"/>
      <point x="236" y="571" type="line"/>
      <point x="250" y="634" type="line"/>
    </contour>
    <contour>
      <point x="376" y="634" type="line"/>
      <point x="376" y="634" type="line"/>
      <point x="362" y="571" type="line"/>
      <point x="425" y="571" type="line"/>
      <point x="439" y="634" type="line"/>
    </contour>
    <contour>
      <point x="439" y="634" type="line"/>
      <point x="439" y="634" type="line"/>
      <point x="425" y="571" type="line"/>
      <point x="488" y="571" type="line"/>
      <point x="502" y="634" type="line"/>
    </contour>
    <contour>
      <point x="628" y="634" type="line"/>
      <point x="628" y="634" type="line"/>
      <point x="614" y="571" type="line"/>
      <point x="677" y="571" type="line"/>
      <point x="691" y="634" type="line"/>
    </contour>
    <contour>
      <point x="691" y="634" type="line"/>
      <point x="691" y="634" type="line"/>
      <point x="677" y="571" type="line"/>
      <point x="740" y="571" type="line"/>
      <point x="754" y="634" type="line"/>
    </contour>
    <contour>
      <point x="110" y="571" type="line"/>
      <point x="110" y="571" type="line"/>
      <point x="97" y="508" type="line"/>
      <point x="160" y="508" type="line"/>
      <point x="173" y="571" type="line"/>
    </contour>
    <contour>
      <point x="173" y="571" type="line"/>
      <point x="173" y="571" type="line"/>
      <point x="160" y="508" type="line"/>
      <point x="223" y="508" type="line"/>
      <point x="236" y="571" type="line"/>
    </contour>
    <contour>
      <point x="362" y="571" type="line"/>
      <point x="362" y="571" type="line"/>
      <point x="349" y="508" type="line"/>
      <point x="412" y="508" type="line"/>
      <point x="425" y="571" type="line"/>
    </contour>
    <contour>
      <point x="425" y="571" type="line"/>
      <point x="425" y="571" type="line"/>
      <point x="412" y="508" type="line"/>
      <point x="475" y="508" type="line"/>
      <point x="488" y="571" type="line"/>
    </contour>
    <contour>
      <point x="614" y="571" type="line"/>
      <point x="614" y="571" type="line"/>
      <point x="601" y="508" type="line"/>
      <point x="664" y="508" type="line"/>
      <point x="677" y="571" type="line"/>
    </contour>
    <contour>
      <point x="677" y="571" type="line"/>
      <point x="677" y="571" type="line"/>
      <point x="664" y="508" type="line"/>
      <point x="727" y="508" type="line"/>
      <point x="740" y="571" type="line"/>
    </contour>
    <contour>
      <point x="97" y="508" type="line"/>
      <point x="97" y="508" type="line"/>
      <point x="83" y="445" type="line"/>
      <point x="146" y="445" type="line"/>
      <point x="160" y="508" type="line"/>
    </contour>
    <contour>
      <point x="160" y="508" type="line"/>
      <point x="160" y="508" type="line"/>
      <point x="146" y="445" type="line"/>
      <point x="209" y="445" type="line"/>
      <point x="223" y="508" type="line"/>
    </contour>
    <contour>
      <point x="349" y="508" type="line"/>
      <point x="349" y="508" type="line"/>
      <point x="335" y="445" type="line"/>
      <point x="398" y="445" type="line"/>
      <point x="412" y="508" type="line"/>
    </contour>
    <contour>
      <point x="412" y="508" type="line"/>
      <point x="412" y="508" type="line"/>
      <point x="398" y="445" type="line"/>
      <point x="461" y="445" type="line"/>
      <point x="475" y="508" type="line"/>
    </contour>
    <contour>
      <point x="538" y="508" type="line"/>
      <point x="538" y="508" type="line"/>
      <point x="524" y="445" type="line"/>
      <point x="587" y="445" type="line"/>
      <point x="601" y="508" type="line"/>
    </contour>
    <contour>
      <point x="601" y="508" type="line"/>
      <point x="601" y="508" type="line"/>
      <point x="587" y="445" type="line"/>
      <point x="650" y="445" type="line"/>
      <point x="664" y="508" type="line"/>
    </contour>
    <contour>
      <point x="83" y="445" type="line"/>
      <point x="83" y="445" type="line"/>
      <point x="70" y="382" type="line"/>
      <point x="133" y="382" type="line"/>
      <point x="146" y="445" type="line"/>
    </contour>
    <contour>
      <point x="146" y="445" type="line"/>
      <point x="146" y="445" type="line"/>
      <point x="133" y="382" type="line"/>
      <point x="196" y="382" type="line"/>
      <point x="209" y="445" type="line"/>
    </contour>
    <contour>
      <point x="335" y="445" type="line"/>
      <point x="335" y="445" type="line"/>
      <point x="322" y="382" type="line"/>
      <point x="385" y="382" type="line"/>
      <point x="398" y="445" type="line"/>
    </contour>
    <contour>
      <point x="398" y="445" type="line"/>
      <point x="398" y="445" type="line"/>
      <point x="385" y="382" type="line"/>
      <point x="448" y="382" type="line"/>
      <point x="461" y="445" type="line"/>
    </contour>
    <contour>
      <point x="524" y="445" type="line"/>
      <point x="524" y="445" type="line"/>
      <point x="511" y="382" type="line"/>
      <point x="574" y="382" type="line"/>
      <point x="587" y="445" type="line"/>
    </contour>
    <contour>
      <point x="587" y="445" type="line"/>
      <point x="587" y="445" type="line"/>
      <point x="574" y="382" type="line"/>
      <point x="637" y="382" type="line"/>
      <point x="650" y="445" type="line"/>
    </contour>
    <contour>
      <point x="133" y="382" type="line"/>
      <point x="133" y="382" type="line"/>
      <point x="120" y="319" type="line"/>
      <point x="183" y="319" type="line"/>
      <point x="196" y="382" type="line"/>
    </contour>
    <contour>
      <point x="196" y="382" type="line"/>
      <point x="196" y="382" type="line"/>
      <point x="183" y="319" type="line"/>
      <point x="246" y="319" type="line"/>
      <point x="259" y="382" type="line"/>
    </contour>
    <contour>
      <point x="259" y="382" type="line"/>
      <point x="259" y="382" type="line"/>
      <point x="246" y="319" type="line"/>
      <point x="309" y="319" type="line"/>
      <point x="322" y="382" type="line"/>
    </contour>
    <contour>
      <point x="322" y="382" type="line"/>
      <point x="322" y="382" type="line"/>
      <point x="309" y="319" type="line"/>
      <point x="372" y="319" type="line"/>
      <point x="385" y="382" type="line"/>
    </contour>
    <contour>
      <point x="448" y="382" type="line"/>
      <point x="448" y="382" type="line"/>
      <point x="435" y="319" type="line"/>
      <point x="498" y="319" type="line"/>
      <point x="511" y="382" type="line"/>
    </contour>
    <contour>
      <point x="511" y="382" type="line"/>
      <point x="511" y="382" type="line"/>
      <point x="498" y="319" type="line"/>
      <point x="561" y="319" type="line"/>
      <point x="574" y="382" type="line"/>
    </contour>
    <contour>
      <point x="637" y="382" type="line"/>
      <point x="637" y="382" type="line"/>
      <point x="624" y="319" type="line"/>
      <point x="687" y="319" type="line"/>
      <point x="700" y="382" type="line"/>
    </contour>
    <contour>
      <point x="700" y="382" type="line"/>
      <point x="700" y="382" type="line"/>
      <point x="687" y="319" type="line"/>
      <point x="750" y="319" type="line"/>
      <point x="763" y="382" type="line"/>
    </contour>
    <contour>
      <point x="763" y="382" type="line"/>
      <point x="763" y="382" type="line"/>
      <point x="750" y="319" type="line"/>
      <point x="813" y="319" type="line"/>
      <point x="826" y="382" type="line"/>
    </contour>
    <contour>
      <point x="826" y="382" type="line"/>
      <point x="826" y="382" type="line"/>
      <point x="813" y="319" type="line"/>
      <point x="876" y="319" type="line"/>
      <point x="889" y="382" type="line"/>
    </contour>
    <contour>
      <point x="372" y="319" type="line"/>
      <point x="372" y="319" type="line"/>
      <point x="358" y="256" type="line"/>
      <point x="421" y="256" type="line"/>
      <point x="435" y="319" type="line"/>
    </contour>
    <contour>
      <point x="435" y="319" type="line"/>
      <point x="435" y="319" type="line"/>
      <point x="421" y="256" type="line"/>
      <point x="484" y="256" type="line"/>
      <point x="498" y="319" type="line"/>
    </contour>
    <contour>
      <point x="561" y="319" type="line"/>
      <point x="561" y="319" type="line"/>
      <point x="547" y="256" type="line"/>
      <point x="610" y="256" type="line"/>
      <point x="624" y="319" type="line"/>
    </contour>
    <contour>
      <point x="624" y="319" type="line"/>
      <point x="624" y="319" type="line"/>
      <point x="610" y="256" type="line"/>
      <point x="673" y="256" type="line"/>
      <point x="687" y="319" type="line"/>
    </contour>
    <contour>
      <point x="813" y="319" type="line"/>
      <point x="813" y="319" type="line"/>
      <point x="799" y="256" type="line"/>
      <point x="862" y="256" type="line"/>
      <point x="876" y="319" type="line"/>
    </contour>
    <contour>
      <point x="876" y="319" type="line"/>
      <point x="876" y="319" type="line"/>
      <point x="862" y="256" type="line"/>
      <point x="925" y="256" type="line"/>
      <point x="939" y="319" type="line"/>
    </contour>
    <contour>
      <point x="295" y="256" type="line"/>
      <point x="295" y="256" type="line"/>
      <point x="282" y="193" type="line"/>
      <point x="345" y="193" type="line"/>
      <point x="358" y="256" type="line"/>
    </contour>
    <contour>
      <point x="358" y="256" type="line"/>
      <point x="358" y="256" type="line"/>
      <point x="345" y="193" type="line"/>
      <point x="408" y="193" type="line"/>
      <point x="421" y="256" type="line"/>
    </contour>
    <contour>
      <point x="547" y="256" type="line"/>
      <point x="547" y="256" type="line"/>
      <point x="534" y="193" type="line"/>
      <point x="597" y="193" type="line"/>
      <point x="610" y="256" type="line"/>
    </contour>
    <contour>
      <point x="610" y="256" type="line"/>
      <point x="610" y="256" type="line"/>
      <point x="597" y="193" type="line"/>
      <point x="660" y="193" type="line"/>
      <point x="673" y="256" type="line"/>
    </contour>
    <contour>
      <point x="799" y="256" type="line"/>
      <point x="799" y="256" type="line"/>
      <point x="786" y="193" type="line"/>
      <point x="849" y="193" type="line"/>
      <point x="862" y="256" type="line"/>
    </contour>
    <contour>
      <point x="862" y="256" type="line"/>
      <point x="862" y="256" type="line"/>
      <point x="849" y="193" type="line"/>
      <point x="912" y="193" type="line"/>
      <point x="925" y="256" type="line"/>
    </contour>
    <contour>
      <point x="282" y="193" type="line"/>
      <point x="282" y="193" type="line"/>
      <point x="268" y="130" type="line"/>
      <point x="331" y="130" type="line"/>
      <point x="345" y="193" type="line"/>
    </contour>
    <contour>
      <point x="345" y="193" type="line"/>
      <point x="345" y="193" type="line"/>
      <point x="331" y="130" type="line"/>
      <point x="394" y="130" type="line"/>
      <point x="408" y="193" type="line"/>
    </contour>
    <contour>
      <point x="534" y="193" type="line"/>
      <point x="534" y="193" type="line"/>
      <point x="520" y="130" type="line"/>
      <point x="583" y="130" type="line"/>
      <point x="597" y="193" type="line"/>
    </contour>
    <contour>
      <point x="597" y="193" type="line"/>
      <point x="597" y="193" type="line"/>
      <point x="583" y="130" type="line"/>
      <point x="646" y="130" type="line"/>
      <point x="660" y="193" type="line"/>
    </contour>
    <contour>
      <point x="786" y="193" type="line"/>
      <point x="786" y="193" type="line"/>
      <point x="772" y="130" type="line"/>
      <point x="835" y="130" type="line"/>
      <point x="849" y="193" type="line"/>
    </contour>
    <contour>
      <point x="849" y="193" type="line"/>
      <point x="849" y="193" type="line"/>
      <point x="835" y="130" type="line"/>
      <point x="898" y="130" type="line"/>
      <point x="912" y="193" type="line"/>
    </contour>
    <contour>
      <point x="205" y="130" type="line"/>
      <point x="205" y="130" type="line"/>
      <point x="192" y="67" type="line"/>
      <point x="255" y="67" type="line"/>
      <point x="268" y="130" type="line"/>
    </contour>
    <contour>
      <point x="268" y="130" type="line"/>
      <point x="268" y="130" type="line"/>
      <point x="255" y="67" type="line"/>
      <point x="318" y="67" type="line"/>
      <point x="331" y="130" type="line"/>
    </contour>
    <contour>
      <point x="520" y="130" type="line"/>
      <point x="520" y="130" type="line"/>
      <point x="507" y="67" type="line"/>
      <point x="570" y="67" type="line"/>
      <point x="583" y="130" type="line"/>
    </contour>
    <contour>
      <point x="583" y="130" type="line"/>
      <point x="583" y="130" type="line"/>
      <point x="570" y="67" type="line"/>
      <point x="633" y="67" type="line"/>
      <point x="646" y="130" type="line"/>
    </contour>
    <contour>
      <point x="772" y="130" type="line"/>
      <point x="772" y="130" type="line"/>
      <point x="759" y="67" type="line"/>
      <point x="822" y="67" type="line"/>
      <point x="835" y="130" type="line"/>
    </contour>
    <contour>
      <point x="835" y="130" type="line"/>
      <point x="835" y="130" type="line"/>
      <point x="822" y="67" type="line"/>
      <point x="885" y="67" type="line"/>
      <point x="898" y="130" type="line"/>
    </contour>
    <contour>
      <point x="192" y="67" type="line"/>
      <point x="192" y="67" type="line"/>
      <point x="179" y="4" type="line"/>
      <point x="242" y="4" type="line"/>
      <point x="255" y="67" type="line"/>
    </contour>
    <contour>
      <point x="255" y="67" type="line"/>
      <point x="255" y="67" type="line"/>
      <point x="242" y="4" type="line"/>
      <point x="305" y="4" type="line"/>
      <point x="318" y="67" type="line"/>
    </contour>
    <contour>
      <point x="570" y="67" type="line"/>
      <point x="570" y="67" type="line"/>
      <point x="557" y="4" type="line"/>
      <point x="620" y="4" type="line"/>
      <point x="633" y="67" type="line"/>
    </contour>
    <contour>
      <point x="633" y="67" type="line"/>
      <point x="633" y="67" type="line"/>
      <point x="620" y="4" type="line"/>
      <point x="683" y="4" type="line"/>
      <point x="696" y="67" type="line"/>
    </contour>
    <contour>
      <point x="696" y="67" type="line"/>
      <point x="696" y="67" type="line"/>
      <point x="683" y="4" type="line"/>
      <point x="746" y="4" type="line"/>
      <point x="759" y="67" type="line"/>
    </contour>
    <contour>
      <point x="759" y="67" type="line"/>
      <point x="759" y="67" type="line"/>
      <point x="746" y="4" type="line"/>
      <point x="809" y="4" type="line"/>
      <point x="822" y="67" type="line"/>
    </contour>
  </outline>
</glyph>
<glyph name="ampersand" format="2">
  <advance width="670"/>
  <unicode hex="0026"/>
  <outline>
    <contour>
      <point x="308" y="696" type="line"/>
      <point x="308" y="696" type="line"/>
      <point x="296" y="639" type="line"/>
      <point x="354" y="639" type="line"/>
      <point x="366" y="696" type="line"/>
    </contour>
    <contour>
      <point x="366" y="696" type="line"/>
      <point x="366" y="696" type="line"/>
      <point x="354" y="639" type="line"/>
      <point x="412" y="639" type="line"/>
      <point x="424" y="696" type="line"/>
    </contour>
    <contour>
      <point x="424" y="696" type="line"/>
      <point x="424" y="696" type="line"/>
      <point x="412" y="639" type="line"/>
      <point x="469" y="639" type="line"/>
      <point x="481" y="696" type="line"/>
    </contour>
    <contour>
      <point x="481" y="696" type="line"/>
      <point x="481" y="696" type="line"/>
      <point x="469" y="639" type="line"/>
      <point x="527" y="639" type="line"/>
      <point x="539" y="696" type="line"/>
    </contour>
    <contour>
      <point x="238" y="639" type="line"/>
      <point x="238" y="639" type="line"/>
      <point x="225" y="581" type="line"/>
      <point x="283" y="581" type="line"/>
      <point x="296" y="639" type="line"/>
    </contour>
    <contour>
      <point x="296" y="639" type="line"/>
      <point x="296" y="639" type="line"/>
      <point x="283" y="581" type="line"/>
      <point x="341" y="581" type="line"/>
      <point x="354" y="639" type="line"/>
    </contour>
    <contour>
      <point x="469" y="639" type="line"/>
      <point x="469" y="639" type="line"/>
      <point x="456" y="581" type="line"/>
      <point x="514" y="581" type="line"/>
      <point x="527" y="639" type="line"/>
    </contour>
    <contour>
      <point x="527" y="639" type="line"/>
      <point x="527" y="639" type="line"/>
      <point x="514" y="581" type="line"/>
      <point x="572" y="581" type="line"/>
      <point x="585" y="639" type="line"/>
    </contour>
    <contour>
      <point x="225" y="581" type="line"/>
      <point x="225" y="581" type="line"/>
      <point x="213" y="523" type="line"/>
      <point x="271" y="523" type="line"/>
      <point x="283" y="581" type="line"/>
    </contour>
    <contour>
      <point x="283" y="581" type="line"/>
      <point x="283" y="581" type="line"/>
      <point x="271" y="523" type="line"/>
      <point x="329" y="523" type="line"/>
      <point x="341" y="581" type="line"/>
    </contour>
    <contour>
      <point x="456" y="581" type="line"/>
      <point x="456" y="581" type="line"/>
      <point x="444" y="523" type="line"/>
      <point x="502" y="523" type="line"/>
      <point x="514" y="581" type="line"/>
    </contour>
    <contour>
      <point x="514" y="581" type="line"/>
      <point x="514" y="581" type="line"/>
      <point x="502" y="523" type="line"/>
      <point x="560" y="523" type="line"/>
      <point x="572" y="581" type="line"/>
    </contour>
    <contour>
      <point x="213" y="523" type="line"/>
      <point x="213" y="523" type="line"/>
      <point x="201" y="465" type="line"/>
      <point x="259" y="465" type="line"/>
      <point x="271" y="523" type="line"/>
    </contour>
    <contour>
      <point x="271" y="523" type="line"/>
      <point x="271" y="523" type="line"/>
      <point x="259" y="465" type="line"/>
      <point x="317" y="465" type="line"/>
      <point x="329" y="523" type="line"/>
    </contour>
    <contour>
      <point x="444" y="523" type="line"/>
      <point x="444" y="523" type="line"/>
      <point x="432" y="465" type="line"/>
      <point x="490" y="465" type="line"/>
      <point x="502" y="523" type="line"/>
    </contour>
    <contour>
      <point x="502" y="523" type="line"/>
      <point x="502" y="523" type="line"/>
      <point x="490" y="465" type="line"/>
      <point x="548" y="465" type="line"/>
      <point x="560" y="523" type="line"/>
    </contour>
    <contour>
      <point x="259" y="465" type="line"/>
      <point x="259" y="465" type="line"/>
      <point x="247" y="408" type="line"/>
      <point x="305" y="408" type="line"/>
      <point x="317" y="465" type="line"/>
    </contour>
    <contour>
      <point x="317" y="465" type="line"/>
      <point x="317" y="465" type="line"/>
      <point x="305" y="408" type="line"/>
      <point x="363" y="408" type="line"/>
      <point x="375" y="465" type="line"/>
    </contour>
    <contour>
      <point x="375" y="465" type="line"/>
      <point x="375" y="465" type="line"/>
      <point x="363" y="408" type="line"/>
      <point x="420" y="408" type="line"/>
      <point x="432" y="465" type="line"/>
    </contour>
    <contour>
      <point x="432" y="465" type="line"/>
      <point x="432" y="465" type="line"/>
      <point x="420" y="408" type="line"/>
      <point x="478" y="408" type="line"/>
      <point x="490" y="465" type="line"/>
    </contour>
    <contour>
      <point x="189" y="408" type="line"/>
      <point x="189" y="408" type="line"/>
      <point x="176" y="350" type="line"/>
      <point x="234" y="350" type="line"/>
      <point x="247" y="408" type="line"/>
    </contour>
    <contour>
      <point x="247" y="408" type="line"/>
      <point x="247" y="408" type="line"/>
      <point x="234" y="350" type="line"/>
      <point x="292" y="350" type="line"/>
      <point x="305" y="408" type="line"/>
    </contour>
    <contour>
      <point x="305" y="408" type="line"/>
      <point x="305" y="408" type="line"/>
      <point x="292" y="350" type="line"/>
      <point x="350" y="350" type="line"/>
      <point x="363" y="408" type="line"/>
    </contour>
    <contour>
      <point x="363" y="408" type="line"/>
      <point x="363" y="408" type="line"/>
      <point x="350" y="350" type="line"/>
      <point x="407" y="350" type="line"/>
      <point x="420" y="408" type="line"/>
    </contour>
    <contour>
      <point x="119" y="350" type="line"/>
      <point x="119" y="350" type="line"/>
      <point x="107" y="292" type="line"/>
      <point x="164" y="292" type="line"/>
      <point x="176" y="350" type="line"/>
    </contour>
    <contour>
      <point x="176" y="350" type="line"/>
      <point x="176" y="350" type="line"/>
      <point x="164" y="292" type="line"/>
      <point x="222" y="292" type="line"/>
      <point x="234" y="350" type="line"/>
    </contour>
    <contour>
      <point x="292" y="350" type="line"/>
      <point x="292" y="350" type="line"/>
      <point x="280" y="292" type="line"/>
      <point x="338" y="292" type="line"/>
      <point x="350" y="350" type="line"/>
    </contour>
    <contour>
      <point x="350" y="350" type="line"/>
      <point x="350" y="350" type="line"/>
      <point x="338" y="292" type="line"/>
      <point x="395" y="292" type="line"/>
      <point x="407" y="350" type="line"/>
    </contour>
    <contour>
      <point x="49" y="292" type="line"/>
      <point x="49" y="292" type="line"/>
      <point x="37" y="235" type="line"/>
      <point x="95" y="235" type="line"/>
      <point x="107" y="292" type="line"/>
    </contour>
    <contour>
      <point x="107" y="292" type="line"/>
      <point x="107" y="292" type="line"/>
      <point x="95" y="235" type="line"/>
      <point x="152" y="235" type="line"/>
      <point x="164" y="292" type="line"/>
    </contour>
    <contour>
      <point x="338" y="292" type="line"/>
      <point x="338" y="292" type="line"/>
      <point x="326" y="235" type="line"/>
      <point x="383" y="235" type="line"/>
      <point x="395" y="292" type="line"/>
    </contour>
    <contour>
      <point x="395" y="292" type="line"/>
      <point x="395" y="292" type="line"/>
      <point x="383" y="235" type="line"/>
      <point x="441" y="235" type="line"/>
      <point x="453" y="292" type="line"/>
    </contour>
    <contour>
      <point x="511" y="292" type="line"/>
      <point x="511" y="292" type="line"/>
      <point x="499" y="235" type="line"/>
      <point x="557" y="235" type="line"/>
      <point x="569" y="292" type="line"/>
    </contour>
    <contour>
      <point x="569" y="292" type="line"/>
      <point x="569" y="292" type="line"/>
      <point x="557" y="235" type="line"/>
      <point x="614" y="235" type="line"/>
      <point x="626" y="292" type="line"/>
    </contour>
    <contour>
      <point x="37" y="235" type="line"/>
      <point x="37" y="235" type="line"/>
      <point x="24" y="177" type="line"/>
      <point x="82" y="177" type="line"/>
      <point x="95" y="235" type="line"/>
    </contour>
    <contour>
      <point x="95" y="235" type="line"/>
      <point x="95" y="235" type="line"/>
      <point x="82" y="177" type="line"/>
      <point x="139" y="177" type="line"/>
      <point x="152" y="235" type="line"/>
    </contour>
    <contour>
      <point x="326" y="235" type="line"/>
      <point x="326" y="235" type="line"/>
      <point x="313" y="177" type="line"/>
      <point x="370" y="177" type="line"/>
      <point x="383" y="235" type="line"/>
    </contour>
    <contour>
      <point x="383" y="235" type="line"/>
      <point x="383" y="235" type="line"/>
      <point x="370" y="177" type="line"/>
      <point x="428" y="177" type="line"/>
      <point x="441" y="235" type="line"/>
    </contour>
    <contour>
      <point x="441" y="235" type="line"/>
      <point x="441" y="235" type="line"/>
      <point x="428" y="177" type="line"/>
      <point x="486" y="177" type="line"/>
      <point x="499" y="235" type="line"/>
    </contour>
    <contour>
      <point x="499" y="235" type="line"/>
      <point x="499" y="235" type="line"/>
      <point x="486" y="177" type="line"/>
      <point x="544" y="177" type="line"/>
      <point x="557" y="235" type="line"/>
    </contour>
    <contour>
      <point x="24" y="177" type="line"/>
      <point x="24" y="177" type="line"/>
      <point x="12" y="119" type="line"/>
      <point x="70" y="119" type="line"/>
      <point x="82" y="177" type="line"/>
    </contour>
    <contour>
      <point x="82" y="177" type="line"/>
      <point x="82" y="177" type="line"/>
      <point x="70" y="119" type="line"/>
      <point x="127" y="119" type="line"/>
      <point x="139" y="177" type="line"/>
    </contour>
    <contour>
      <point x="370" y="177" type="line"/>
      <point x="370" y="177" type="line"/>
      <point x="358" y="119" type="line"/>
      <point x="416" y="119" type="line"/>
      <point x="428" y="177" type="line"/>
    </contour>
    <contour>
      <point x="428" y="177" type="line"/>
      <point x="428" y="177" type="line"/>
      <point x="416" y="119" type="line"/>
      <point x="474" y="119" type="line"/>
      <point x="486" y="177" type="line"/>
    </contour>
    <contour>
      <point x="70" y="119" type="line"/>
      <point x="70" y="119" type="line"/>
      <point x="58" y="61" type="line"/>
      <point x="115" y="61" type="line"/>
      <point x="127" y="119" type="line"/>
    </contour>
    <contour>
      <point x="127" y="119" type="line"/>
      <point x="127" y="119" type="line"/>
      <point x="115" y="61" type="line"/>
      <point x="173" y="61" type="line"/>
      <point x="185" y="119" type="line"/>
    </contour>
    <contour>
      <point x="358" y="119" type="line"/>
      <point x="358" y="119" type="line"/>
      <point x="346" y="61" type="line"/>
      <point x="404" y="61" type="line"/>
      <point x="416" y="119" type="line"/>
    </contour>
    <contour>
      <point x="416" y="119" type="line"/>
      <point x="416" y="119" type="line"/>
      <point x="404" y="61" type="line"/>
      <point x="462" y="61" type="line"/>
      <point x="474" y="119" type="line"/>
    </contour>
    <contour>
      <point x="474" y="119" type="line"/>
      <point x="474" y="119" type="line"/>
      <point x="462" y="61" type="line"/>
      <point x="520" y="61" type="line"/>
      <point x="532" y="119" type="line"/>
    </contour>
    <contour>
      <point x="115" y="61" type="line"/>
      <point x="115" y="61" type="line"/>
      <point x="103" y="4" type="line"/>
      <point x="161" y="4" type="line"/>
      <point x="173" y="61" type="line"/>
    </contour>
    <contour>
      <point x="173" y="61" type="line"/>
      <point x="173" y="61" type="line"/>
      <point x="161" y="4" type="line"/>
      <point x="219" y="4" type="line"/>
      <point x="231" y="61" type="line"/>
    </contour>
    <contour>
      <point x="231" y="61" type="line"/>
      <point x="231" y="61" type="line"/>
      <point x="219" y="4" type="line"/>
      <point x="277" y="4" type="line"/>
      <point x="289" y="61" type="line"/>
    </contour>
    <contour>
      <point x="289" y="61" type="line"/>
      <point x="289" y="61" type="line"/>
      <point x="277" y="4" type="line"/>
      <point x="334" y="4" type="line"/>
      <point x="346" y="61" type="line"/>
    </contour>
    <contour>
      <point x="346" y="61" type="line"/>
      <point x="346" y="61" type="line"/>
      <point x="334" y="4" type="line"/>
      <point x="392" y="4" type="line"/>
      <point x="404" y="61" type="line"/>
    </contour>
    <contour>
      <point x="462" y="61" type="line"/>
      <point x="462" y="61" type="line"/>
      <point x="450" y="4" type="line"/>
      <point x="508" y="4" type="line"/>
      <point x="520" y="61" type="line"/>
    </contour>
    <contour>
      <point x="520" y="61" type="line"/>
      <point x="520" y="61" type="line"/>
      <point x="508" y="4" type="line"/>
      <point x="565" y="4" type="line"/>
      <point x="577" y="61" type="line"/>
    </contour>
  </outline>
</glyph>
<glyph name="quotesingle" format="2">
  <advance width="219"/>
  <unicode hex="0027"/>
  <outline>
    <contour>
      <point x="162" y="817" type="line"/>
      <point x="162" y="817" type="line"/>
      <point x="149" y="755" type="line"/>
      <point x="212" y="755" type="line"/>
      <point x="225" y="817" type="line"/>
    </contour>
    <contour>
      <point x="225" y="817" type="line"/>
      <point x="225" y="817" type="line"/>
      <point x="212" y="755" type="line"/>
      <point x="274" y="755" type="line"/>
      <point x="287" y="817" type="line"/>
    </contour>
    <contour>
      <point x="149" y="755" type="line"/>
      <point x="149" y="755" type="line"/>
      <point x="136" y="693" type="line"/>
      <point x="199" y="693" type="line"/>
      <point x="212" y="755" type="line"/>
    </contour>
    <contour>
      <point x="212" y="755" type="line"/>
      <point x="212" y="755" type="line"/>
      <point x="199" y="693" type="line"/>
      <point x="261" y="693" type="line"/>
      <point x="274" y="755" type="line"/>
    </contour>
    <contour>
      <point x="136" y="693" type="line"/>
      <point x="136" y="693" type="line"/>
      <point x="123" y="631" type="line"/>
      <point x="186" y="631" type="line"/>
      <point x="199" y="693" type="line"/>
    </contour>
    <contour>
      <point x="199" y="693" type="line"/>
      <point x="199" y="693" type="line"/>
      <point x="186" y="631" type="line"/>
      <point x="248" y="631" type="line"/>
      <point x="261" y="693" type="line"/>
    </contour>
    <contour>
      <point x="186" y="631" type="line"/>
      <point x="186" y="631" type="line"/>
      <point x="173" y="569" type="line"/>
      <point x="235" y="569" type="line"/>
      <point x="248" y="631" type="line"/>
    </contour>
  </outline>
</glyph>
<glyph name="parenleft" format="2">
  <advance width="337"/>
  <unicode hex="0028"/>
  <outline>
    <contour>
      <point x="269" y="745" type="line"/>
      <point x="269" y="745" type="line"/>
      <point x="256" y="685" type="line"/>
      <point x="316" y="685" type="line"/>
      <point x="329" y="745" type="line"/>
    </contour>
    <contour>
      <point x="329" y="745" type="line"/>
      <point x="329" y="745" type="line"/>
      <point x="316" y="685" type="line"/>
      <point x="377" y="685" type="line"/>
      <point x="390" y="745" type="line"/>
    </contour>
    <contour>
      <point x="195" y="685" type="line"/>
      <point x="195" y="685" type="line"/>
      <point x="182" y="624" type="line"/>
      <point x="243" y="624" type="line"/>
      <point x="256" y="685" type="line"/>
    </contour>
    <contour>
      <point x="256" y="685" type="line"/>
      <point x="256" y="685" type="line"/>
      <point x="243" y="624" type="line"/>
      <point x="303" y="624" type="line"/>
      <point x="316" y="685" type="line"/>
    </contour>
    <contour>
      <point x="182" y="624" type="line"/>
      <point x="182" y="624" type="line"/>
      <point x="169" y="563" type="line"/>
      <point x="230" y="563" type="line"/>
      <point x="243" y="624" type="line"/>
    </contour>
    <contour>
      <point x="243" y="624" type="line"/>
      <point x="243" y="624" type="line"/>
      <point x="230" y="563" type="line"/>
      <point x="290" y="563" type="line"/>
      <point x="303" y="624" type="line"/>
    </contour>
    <contour>
      <point x="108" y="563" type="line"/>
      <point x="108" y="563" type="line"/>
      <point x="96" y="503" type="line"/>
      <point x="157" y="503" type="line"/>
      <point x="169" y="563" type="line"/>
    </contour>
    <contour>
      <point x="169" y="563" type="line"/>
      <point x="169" y="563" type="line"/>
      <point x="157" y="503" type="line"/>
      <point x="218" y="503" type="line"/>
      <point x="230" y="563" type="line"/>
    </contour>
    <contour>
      <point x="96" y="503" type="line"/>
      <point x="96" y="503" type="line"/>
      <point x="83" y="442" type="line"/>
      <point x="144" y="442" type="line"/>
      <point x="157" y="503" type="line"/>
    </contour>
    <contour>
      <point x="157" y="503" type="line"/>
      <point x="157" y="503" type="line"/>
      <point x="144" y="442" type="line"/>
      <point x="205" y="442" type="line"/>
      <point x="218" y="503" type="line"/>
    </contour>
    <contour>
      <point x="83" y="442" type="line"/>
      <point x="83" y="442" type="line"/>
      <point x="70" y="381" type="line"/>
      <point x="131" y="381" type="line"/>
      <point x="144" y="442" type="line"/>
    </contour>
    <contour>
      <point x="144" y="442" type="line"/>
      <point x="144" y="442" type="line"/>
      <point x="131" y="381" type="line"/>
      <point x="192" y="381" type="line"/>
      <point x="205" y="442" type="line"/>
    </contour>
    <contour>
      <point x="70" y="381" type="line"/>
      <point x="70" y="381" type="line"/>
      <point x="57" y="321" type="line"/>
      <point x="118" y="321" type="line"/>
      <point x="131" y="381" type="line"/>
    </contour>
    <contour>
      <point x="131" y="381" type="line"/>
      <point x="131" y="381" type="line"/>
      <point x="118" y="321" type="line"/>
      <point x="179" y="321" type="line"/>
      <point x="192" y="381" type="line"/>
    </contour>
    <contour>
      <point x="57" y="321" type="line"/>
      <point x="57" y="321" type="line"/>
      <point x="44" y="260" type="line"/>
      <point x="105" y="260" type="line"/>
      <point x="118" y="321" type="line"/>
    </contour>
    <contour>
      <point x="118" y="321" type="line"/>
      <point x="118" y="321" type="line"/>
      <point x="105" y="260" type="line"/>
      <point x="166" y="260" type="line"/>
      <point x="179" y="321" type="line"/>
    </contour>
    <contour>
      <point x="44" y="260" type="line"/>
      <point x="44" y="260" type="line"/>
      <point x="31" y="199" type="line"/>
      <point x="92" y="199" type="line"/>
      <point x="105" y="260" type="line"/>
    </contour>
    <contour>
      <point x="105" y="260" type="line"/>
      <point x="105" y="260" type="line"/>
      <point x="92" y="199" type="line"/>
      <point x="153" y="199" type="line"/>
      <point x="166" y="260" type="line"/>
    </contour>
    <contour>
      <point x="31" y="199" type="line"/>
      <point x="31" y="199" type="line"/>
      <point x="18" y="139" type="line"/>
      <point x="79" y="139" type="line"/>
      <point x="92" y="199" type="line"/>
    </contour>
    <contour>
      <point x="92" y="199" type="line"/>
      <point x="92" y="199" type="line"/>
      <point x="79" y="139" type="line"/>
      <point x="140" y="139" type="line"/>
      <point x="153" y="199" type="line"/>
    </contour>
    <contour>
      <point x="79" y="139" type="line"/>
      <point x="79" y="139" type="line"/>
      <point x="66" y="78" type="line"/>
      <point x="127" y="78" type="line"/>
      <point x="140" y="139" type="line"/>
    </contour>
    <contour>
      <point x="140" y="139" type="line"/>
      <point x="140" y="139" type="line"/>
      <point x="127" y="78" type="line"/>
      <point x="187" y="78" type="line"/>
      <point x="200" y="139" type="line"/>
    </contour>
    <contour>
      <point x="66" y="78" type="line"/>
      <point x="66" y="78" type="line"/>
      <point x="53" y="17" type="line"/>
      <point x="114" y="17" type="line"/>
      <point x="127" y="78" type="line"/>
    </contour>
    <contour>
      <point x="127" y="78" type="line"/>
      <point x="127" y="78" type="line"/>
      <point x="114" y="17" type="line"/>
      <point x="174" y="17" type="line"/>
      <point x="187" y="78" type="line"/>
    </contour>
    <contour>
      <point x="114" y="17" type="line"/>
      <point x="114" y="17" type="line"/>
      <point x="102" y="-43" type="line"/>
      <point x="162" y="-43" type="line"/>
      <point x="174" y="17" type="line"/>
    </contour>
    <contour>
      <point x="174" y="17" type="line"/>
      <point x="174" y="17" type="line"/>
      <point x="162" y="-43" type="line"/>
      <point x="223" y="-43" type="line"/>
      <point x="235" y="17" type="line"/>
    </contour>
  </outline>
</glyph>
<glyph name="parenright" format="2">
  <advance width="337"/>
  <unicode hex="0029"/>
  <outline>
    <contour>
      <point x="269" y="745" type="line"/>
      <point x="269" y="745" type="line"/>
      <point x="256" y="685" type="line"/>
      <point x="195" y="685" type="line"/>
      <point x="208" y="745" type="line"/>
    </contour>
    <contour>
      <point x="208" y="745" type="line"/>
      <point x="208" y="745" type="line"/>
      <point x="195" y="685" type="line"/>
      <point x="134" y="685" type="line"/>
      <point x="147" y="745" type="line"/>
    </contour>
    <contour>
      <point x="316" y="685" type="line"/>
      <point x="316" y="685" type="line"/>
      <point x="303" y="624" type="line"/>
      <point x="243" y="624" type="line"/>
      <point x="256" y="685" type="line"/>
    </contour>
    <contour>
      <point x="256" y="685" type="line"/>
      <point x="256" y="685" type="line"/>
      <point x="243" y="624" type="line"/>
      <point x="182" y="624" type="line"/>
      <point x="195" y="685" type="line"/>
    </contour>
    <contour>
      <point x="303" y="624" type="line"/>
      <point x="303" y="624" type="line"/>
      <point x="290" y="563" type="line"/>
      <point x="230" y="563" type="line"/>
      <point x="243" y="624" type="line"/>
    </contour>
    <contour>
      <point x="243" y="624" type="line"/>
      <point x="243" y="624" type="line"/>
      <point x="230" y="563" type="line"/>
      <point x="169" y="563" type="line"/>
      <point x="182" y="624" type="line"/>
    </contour>
    <contour>
      <point x="351" y="563" type="line"/>
      <point x="351" y="563" type="line"/>
      <point x="339" y="503" type="line"/>
      <point x="278" y="503" type="line"/>
      <point x="290" y="563" type="line"/>
    </contour>
    <contour>
      <point x="290" y="563" type="line"/>
      <point x="290" y="563" type="line"/>
      <point x="278" y="503" type="line"/>
      <point x="218" y="503" type="line"/>
      <point x="230" y="563" type="line"/>
    </contour>
    <contour>
      <point x="339" y="503" type="line"/>
      <point x="339" y="503" type="line"/>
      <point x="326" y="442" type="line"/>
      <point x="265" y="442" type="line"/>
      <point x="278" y="503" type="line"/>
    </contour>
    <contour>
      <point x="278" y="503" type="line"/>
      <point x="278" y="503" type="line"/>
      <point x="265" y="442" type="line"/>
      <point x="205" y="442" type="line"/>
      <point x="218" y="503" type="line"/>
    </contour>
    <contour>
      <point x="326" y="442" type="line"/>
      <point x="326" y="442" type="line"/>
      <point x="313" y="381" type="line"/>
      <point x="252" y="381" type="line"/>
      <point x="265" y="442" type="line"/>
    </contour>
    <contour>
      <point x="265" y="442" type="line"/>
      <point x="265" y="442" type="line"/>
      <point x="252" y="381" type="line"/>
      <point x="192" y="381" type="line"/>
      <point x="205" y="442" type="line"/>
    </contour>
    <contour>
      <point x="313" y="381" type="line"/>
      <point x="313" y="381" type="line"/>
      <point x="300" y="321" type="line"/>
      <point x="239" y="321" type="line"/>
      <point x="252" y="381" type="line"/>
    </contour>
    <contour>
      <point x="252" y="381" type="line"/>
      <point x="252" y="381" type="line"/>
      <point x="239" y="321" type="line"/>
      <point x="179" y="321" type="line"/>
      <point x="192" y="381" type="line"/>
    </contour>
    <contour>
      <point x="300" y="321" type="line"/>
      <point x="300" y="321" type="line"/>
      <point x="287" y="260" type="line"/>
      <point x="226" y="260" type="line"/>
      <point x="239" y="321" type="line"/>
    </contour>
    <contour>
      <point x="239" y="321" type="line"/>
      <point x="239" y="321" type="line"/>
      <point x="226" y="260" type="line"/>
      <point x="166" y="260" type="line"/>
      <point x="179" y="321" type="line"/>
    </contour>
    <contour>
      <point x="287" y="260" type="line"/>
      <point x="287" y="260" type="line"/>
      <point x="274" y="199" type="line"/>
      <point x="213" y="199" type="line"/>
      <point x="226" y="260" type="line"/>
    </contour>
    <contour>
      <point x="226" y="260" type="line"/>
      <point x="226" y="260" type="line"/>
      <point x="213" y="199" type="line"/>
      <point x="153" y="199" type="line"/>
      <point x="166" y="260" type="line"/>
    </contour>
    <contour>
      <point x="274" y="199" type="line"/>
      <point x="274" y="199" type="line"/>
      <point x="261" y="139" type="line"/>
      <point x="200" y="139" type="line"/>
      <point x="213" y="199" type="line"/>
    </contour>
    <contour>
      <point x="213" y="199" type="line"/>
      <point x="213" y="199" type="line"/>
      <point x="200" y="139" type="line"/>
      <point x="140" y="139" type="line"/>
      <point x="153" y="199" type="line"/>
    </contour>
    <contour>
      <point x="200" y="139" type="line"/>
      <point x="200" y="139" type="line"/>
      <point x="187" y="78" type="line"/>
      <point x="127" y="78" type="line"/>
      <point x="140" y="139" type="line"/>
    </contour>
    <contour>
      <point x="140" y="139" type="line"/>
      <point x="140" y="139" type="line"/>
      <point x="127" y="78" type="line"/>
      <point x="66" y="78" type="line"/>
      <point x="79" y="139" type="line"/>
    </contour>
    <contour>
      <point x="187" y="78" type="line"/>
      <point x="187" y="78" type="line"/>
      <point x="174" y="17" type="line"/>
      <point x="114" y="17" type="line"/>
      <point x="127" y="78" type="line"/>
    </contour>
    <contour>
      <point x="127" y="78" type="line"/>
      <point x="127" y="78" type="line"/>
      <point x="114" y="17" type="line"/>
      <point x="53" y="17" type="line"/>
      <point x="66" y="78" type="line"/>
    </contour>
    <contour>
      <point x="114" y="17" type="line"/>
      <point x="114" y="17" type="line"/>
      <point x="102" y="-43" type="line"/>
      <point x="41" y="-43" type="line"/>
      <point x="53" y="17" type="line"/>
    </contour>
    <contour>
      <point x="53" y="17" type="line"/>
      <point x="53" y="17" type="line"/>
      <point x="41" y="-43" type="line"/>
      <point x="-20" y="-43" type="line"/>
      <point x="-8" y="17" type="line"/>
    </contour>
  </outline>
</glyph>
<glyph name="asterisk" format="2">
  <advance width="549"/>
  <unicode hex="002A"/>
  <outline>
    <contour>
      <point x="112" y="570" type="line"/>
      <point x="112" y="570" type="line"/>
      <point x="98" y="506" type="line"/>
      <point x="163" y="506" type="line"/>
      <point x="177" y="570" type="line"/>
    </contour>
    <contour>
      <point x="177" y="570" type="line"/>
      <point x="177" y="570" type="line"/>
      <point x="163" y="506" type="line"/>
      <point x="228" y="506" type="line"/>
      <point x="242" y="570" type="line"/>
    </contour>
    <contour>
      <point x="436" y="570" type="line"/>
      <point x="436" y="570" type="line"/>
      <point x="422" y="506" type="line"/>
      <point x="486" y="506" type="line"/>
      <point x="500" y="570" type="line"/>
    </contour>
    <contour>
      <point x="500" y="570" type="line"/>
      <point x="500" y="570" type="line"/>
      <point x="486" y="506" type="line"/>
      <point x="551" y="506" type="line"/>
      <point x="565" y="570" type="line"/>
    </contour>
    <contour>
      <point x="163" y="506" type="line"/>
      <point x="163" y="506" type="line"/>
      <point x="150" y="441" type="line"/>
      <point x="215" y="441" type="line"/>
      <point x="228" y="506" type="line"/>
    </contour>
    <contour>
      <point x="228" y="506" type="line"/>
      <point x="228" y="506" type="line"/>
      <point x="215" y="441" type="line"/>
      <point x="279" y="441" type="line"/>
      <point x="292" y="506" type="line"/>
    </contour>
    <contour>
      <point x="357" y="506" type="line"/>
      <point x="357" y="506" type="line"/>
      <point x="344" y="441" type="line"/>
      <point x="409" y="441" type="line"/>
      <point x="422" y="506" type="line"/>
    </contour>
    <contour>
      <point x="422" y="506" type="line"/>
      <point x="422" y="506" type="line"/>
      <point x="409" y="441" type="line"/>
      <point x="473" y="441" type="line"/>
      <point x="486" y="506" type="line"/>
    </contour>
    <contour>
      <point x="215" y="441" type="line"/>
      <point x="215" y="441" type="line"/>
      <point x="201" y="376" type="line"/>
      <point x="265" y="376" type="line"/>
      <point x="279" y="441" type="line"/>
    </contour>
    <contour>
      <point x="279" y="441" type="line"/>
      <point x="279" y="441" type="line"/>
      <point x="265" y="376" type="line"/>
      <point x="330" y="376" type="line"/>
      <point x="344" y="441" type="line"/>
    </contour>
    <contour>
      <point x="344" y="441" type="line"/>
      <point x="344" y="441" type="line"/>
      <point x="330" y="376" type="line"/>
      <point x="395" y="376" type="line"/>
      <point x="409" y="441" type="line"/>
    </contour>
    <contour>
      <point x="71" y="376" type="line"/>
      <point x="71" y="376" type="line"/>
      <point x="57" y="311" type="line"/>
      <point x="122" y="311" type="line"/>
      <point x="136" y="376" type="line"/>
    </contour>
    <contour>
      <point x="136" y="376" type="line"/>
      <point x="136" y="376" type="line"/>
      <point x="122" y="311" type="line"/>
      <point x="187" y="311" type="line"/>
      <point x="201" y="376" type="line"/>
    </contour>
    <contour>
      <point x="201" y="376" type="line"/>
      <point x="201" y="376" type="line"/>
      <point x="187" y="311" type="line"/>
      <point x="251" y="311" type="line"/>
      <point x="265" y="376" type="line"/>
    </contour>
    <contour>
      <point x="265" y="376" type="line"/>
      <point x="265" y="376" type="line"/>
      <point x="251" y="311" type="line"/>
      <point x="316" y="311" type="line"/>
      <point x="330" y="376" type="line"/>
    </contour>
    <contour>
      <point x="330" y="376" type="line"/>
      <point x="330" y="376" type="line"/>
      <point x="316" y="311" type="line"/>
      <point x="381" y="311" type="line"/>
      <point x="395" y="376" type="line"/>
    </contour>
    <contour>
      <point x="395" y="376" type="line"/>
      <point x="395" y="376" type="line"/>
      <point x="381" y="311" type="line"/>
      <point x="445" y="311" type="line"/>
      <point x="459" y="376" type="line"/>
    </contour>
    <contour>
      <point x="459" y="376" type="line"/>
      <point x="459" y="376" type="line"/>
      <point x="445" y="311" type="line"/>
      <point x="510" y="311" type="line"/>
      <point x="524" y="376" type="line"/>
    </contour>
    <contour>
      <point x="187" y="311" type="line"/>
      <point x="187" y="311" type="line"/>
      <point x="173" y="247" type="line"/>
      <point x="237" y="247" type="line"/>
      <point x="251" y="311" type="line"/>
    </contour>
    <contour>
      <point x="251" y="311" type="line"/>
      <point x="251" y="311" type="line"/>
      <point x="237" y="247" type="line"/>
      <point x="302" y="247" type="line"/>
      <point x="316" y="311" type="line"/>
    </contour>
    <contour>
      <point x="316" y="311" type="line"/>
      <point x="316" y="311" type="line"/>
      <point x="302" y="247" type="line"/>
      <point x="367" y="247" type="line"/>
      <point x="381" y="311" type="line"/>
    </contour>
    <contour>
      <point x="108" y="247" type="line"/>
      <point x="108" y="247" type="line"/>
      <point x="95" y="182" type="line"/>
      <point x="160" y="182" type="line"/>
      <point x="173" y="247" type="line"/>
    </contour>
    <contour>
      <point x="173" y="247" type="line"/>
      <point x="173" y="247" type="line"/>
      <point x="160" y="182" type="line"/>
      <point x="224" y="182" type="line"/>
      <point x="237" y="247" type="line"/>
    </contour>
    <contour>
      <point x="302" y="247" type="line"/>
      <point x="302" y="247" type="line"/>
      <point x="289" y="182" type="line"/>
      <point x="354" y="182" type="line"/>
      <point x="367" y="247" type="line"/>
    </contour>
    <contour>
      <point x="367" y="247" type="line"/>
      <point x="367" y="247" type="line"/>
      <point x="354" y="182" type="line"/>
      <point x="418" y="182" type="line"/>
      <point x="431" y="247" type="line"/>
    </contour>
    <contour>
      <point x="30" y="182" type="line"/>
      <point x="30" y="182" type="line"/>
      <point x="16" y="117" type="line"/>
      <point x="81" y="117" type="line"/>
      <point x="95" y="182" type="line"/>
    </contour>
    <contour>
      <point x="95" y="182" type="line"/>
      <point x="95" y="182" type="line"/>
      <point x="81" y="117" type="line"/>
      <point x="146" y="117" type="line"/>
      <point x="160" y="182" type="line"/>
    </contour>
    <contour>
      <point x="354" y="182" type="line"/>
      <point x="354" y="182" type="line"/>
      <point x="340" y="117" type="line"/>
      <point x="404" y="117" type="line"/>
      <point x="418" y="182" type="line"/>
    </contour>
    <contour>
      <point x="418" y="182" type="line"/>
      <point x="418" y="182" type="line"/>
      <point x="404" y="117" type="line"/>
      <point x="469" y="117" type="line"/>
      <point x="483" y="182" type="line"/>
    </contour>
  </outline>
</glyph>
<glyph name="plus" format="2">
  <advance width="594"/>
  <unicode hex="002B"/>
  <outline>
    <contour>
      <point x="295" y="559" type="line"/>
      <point x="295" y="559" type="line"/>
      <point x="281" y="497" type="line"/>
      <point x="344" y="497" type="line"/>
      <point x="358" y="559" type="line"/>
    </contour>
    <contour>
      <point x="358" y="559" type="line"/>
      <point x="358" y="559" type="line"/>
      <point x="344" y="497" type="line"/>
      <point x="406" y="497" type="line"/>
      <point x="420" y="559" type="line"/>
    </contour>
    <contour>
      <point x="281" y="497" type="line"/>
      <point x="281" y="497" type="line"/>
      <point x="268" y="434" type="line"/>
      <point x="331" y="434" type="line"/>
      <point x="344" y="497" type="line"/>
    </contour>
    <contour>
      <point x="344" y="497" type="line"/>
      <point x="344" y="497" type="line"/>
      <point x="331" y="434" type="line"/>
      <point x="393" y="434" type="line"/>
      <point x="406" y="497" type="line"/>
    </contour>
    <contour>
      <point x="268" y="434" type="line"/>
      <point x="268" y="434" type="line"/>
      <point x="255" y="372" type="line"/>
      <point x="318" y="372" type="line"/>
      <point x="331" y="434" type="line"/>
    </contour>
    <contour>
      <point x="331" y="434" type="line"/>
      <point x="331" y="434" type="line"/>
      <point x="318" y="372" type="line"/>
      <point x="380" y="372" type="line"/>
      <point x="393" y="434" type="line"/>
    </contour>
    <contour>
      <point x="67" y="372" type="line"/>
      <point x="67" y="372" type="line"/>
      <point x="53" y="309" type="line"/>
      <point x="116" y="309" type="line"/>
      <point x="130" y="372" type="line"/>
    </contour>
    <contour>
      <point x="130" y="372" type="line"/>
      <point x="130" y="372" type="line"/>
      <point x="116" y="309" type="line"/>
      <point x="178" y="309" type="line"/>
      <point x="192" y="372" type="line"/>
    </contour>
    <contour>
      <point x="192" y="372" type="line"/>
      <point x="192" y="372" type="line"/>
      <point x="178" y="309" type="line"/>
      <point x="241" y="309" type="line"/>
      <point x="255" y="372" type="line"/>
    </contour>
    <contour>
      <point x="255" y="372" type="line"/>
      <point x="255" y="372" type="line"/>
      <point x="241" y="309" type="line"/>
      <point x="304" y="309" type="line"/>
      <point x="318" y="372" type="line"/>
    </contour>
    <contour>
      <point x="318" y="372" type="line"/>
      <point x="318" y="372" type="line"/>
      <point x="304" y="309" type="line"/>
      <point x="366" y="309" type="line"/>
      <point x="380" y="372" type="line"/>
    </contour>
    <contour>
      <point x="380" y="372" type="line"/>
      <point x="380" y="372" type="line"/>
      <point x="366" y="309" type="line"/>
      <point x="429" y="309" type="line"/>
      <point x="443" y="372" type="line"/>
    </contour>
    <contour>
      <point x="443" y="372" type="line"/>
      <point x="443" y="372" type="line"/>
      <point x="429" y="309" type="line"/>
      <point x="491" y="309" type="line"/>
      <point x="505" y="372" type="line"/>
    </contour>
    <contour>
      <point x="505" y="372" type="line"/>
      <point x="505" y="372" type="line"/>
      <point x="491" y="309" type="line"/>
      <point x="554" y="309" type="line"/>
      <point x="568" y="372" type="line"/>
    </contour>
    <contour>
      <point x="241" y="309" type="line"/>
      <point x="241" y="309" type="line"/>
      <point x="228" y="246" type="line"/>
      <point x="291" y="246" type="line"/>
      <point x="304" y="309" type="line"/>
    </contour>
    <contour>
      <point x="304" y="309" type="line"/>
      <point x="304" y="309" type="line"/>
      <point x="291" y="246" type="line"/>
      <point x="353" y="246" type="line"/>
      <point x="366" y="309" type="line"/>
    </contour>
    <contour>
      <point x="228" y="246" type="line"/>
      <point x="228" y="246" type="line"/>
      <point x="215" y="184" type="line"/>
      <point x="278" y="184" type="line"/>
      <point x="291" y="246" type="line"/>
    </contour>
    <contour>
      <point x="291" y="246" type="line"/>
      <point x="291" y="246" type="line"/>
      <point x="278" y="184" type="line"/>
      <point x="340" y="184" type="line"/>
      <point x="353" y="246" type="line"/>
    </contour>
    <contour>
      <point x="215" y="184" type="line"/>
      <point x="215" y="184" type="line"/>
      <point x="202" y="121" type="line"/>
      <point x="265" y="121" type="line"/>
      <point x="278" y="184" type="line"/>
    </contour>
    <contour>
      <point x="278" y="184" type="line"/>
      <point x="278" y="184" type="line"/>
      <point x="265" y="121" type="line"/>
      <point x="327" y="121" type="line"/>
      <point x="340" y="184" type="line"/>
    </contour>
  </outline>
</glyph>
<glyph name="comma" format="2">
  <advance width="221"/>
  <unicode hex="002C"/>
  <outline>
    <contour>
      <point x="31" y="193" type="line"/>
      <point x="31" y="193" type="line"/>
      <point x="17" y="130" type="line"/>
      <point x="80" y="130" type="line"/>
      <point x="94" y="193" type="line"/>
    </contour>
    <contour>
      <point x="94" y="193" type="line"/>
      <point x="94" y="193" type="line"/>
      <point x="80" y="130" type="line"/>
      <point x="143" y="130" type="line"/>
      <point x="157" y="193" type="line"/>
    </contour>
    <contour>
      <point x="17" y="130" type="line"/>
      <point x="17" y="130" type="line"/>
      <point x="4" y="67" type="line"/>
      <point x="67" y="67" type="line"/>
      <point x="80" y="130" type="line"/>
    </contour>
    <contour>
      <point x="80" y="130" type="line"/>
      <point x="80" y="130" type="line"/>
      <point x="67" y="67" type="line"/>
      <point x="130" y="67" type="line"/>
      <point x="143" y="130" type="line"/>
    </contour>
    <contour>
      <point x="67" y="67" type="line"/>
      <point x="67" y="67" type="line"/>
      <point x="54" y="5" type="line"/>
      <point x="117" y="5" type="line"/>
      <point x="130" y="67" type="line"/>
    </contour>
    <contour>
      <point x="-9" y="5" type="line"/>
      <point x="-9" y="5" type="line"/>
      <point x="-23" y="-58" type="line"/>
      <point x="40" y="-58" type="line"/>
      <point x="54" y="5" type="line"/>
    </contour>
  </outline>
</glyph>
<glyph name="hyphen" format="2">
  <advance width="471"/>
  <unicode hex="002D"/>
  <outline>
    <contour>
      <point x="72" y="388" type="line"/>
      <point x="72" y="388" type="line"/>
      <point x="59" y="325" type="line"/>
      <point x="122" y="325" type="line"/>
      <point x="135" y="388" type="line"/>
    </contour>
    <contour>
      <point x="135" y="388" type="line"/>
      <point x="135" y="388" type="line"/>
      <point x="122" y="325" type="line"/>
      <point x="184" y="325" type="line"/>
      <point x="197" y="388" type="line"/>
    </contour>
    <contour>
      <point x="197" y="388" type="line"/>
      <point x="197" y="388" type="line"/>
      <point x="184" y="325" type="line"/>
      <point x="247" y="325" type="line"/>
      <point x="260" y="388" type="line"/>
    </contour>
    <contour>
      <point x="260" y="388" type="line"/>
      <point x="260" y="388" type="line"/>
      <point x="247" y="325" type="line"/>
      <point x="310" y="325" type="line"/>
      <point x="323" y="388" type="line"/>
    </contour>
    <contour>
      <point x="323" y="388" type="line"/>
      <point x="323" y="388" type="line"/>
      <point x="310" y="325" type="line"/>
      <point x="372" y="325" type="line"/>
      <point x="385" y="388" type="line"/>
    </contour>
    <contour>
      <point x="385" y="388" type="line"/>
      <point x="385" y="388" type="line"/>
      <point x="372" y="325" type="line"/>
      <point x="435" y="325" type="line"/>
      <point x="448" y="388" type="line"/>
    </contour>
  </outline>
</glyph>
<glyph name="period" format="2">
  <advance width="220"/>
  <unicode hex="002E"/>
  <outline>
    <contour>
      <point x="17" y="130" type="line"/>
      <point x="17" y="130" type="line"/>
      <point x="4" y="67" type="line"/>
      <point x="67" y="67" type="line"/>
      <point x="80" y="130" type="line"/>
    </contour>
    <contour>
      <point x="80" y="130" type="line"/>
      <point x="80" y="130" type="line"/>
      <point x="67" y="67" type="line"/>
      <point x="130" y="67" type="line"/>
      <point x="143" y="130" type="line"/>
    </contour>
    <contour>
      <point x="4" y="67" type="line"/>
      <point x="4" y="67" type="line"/>
      <point x="-9" y="4" type="line"/>
      <point x="54" y="4" type="line"/>
      <point x="67" y="67" type="line"/>
    </contour>
    <contour>
      <point x="67" y="67" type="line"/>
      <point x="67" y="67" type="line"/>
      <point x="54" y="4" type="line"/>
      <point x="117" y="4" type="line"/>
      <point x="130" y="67" type="line"/>
    </contour>
  </outline>
</glyph>
<glyph name="slash" format="2">
  <advance width="472"/>
  <unicode hex="002F"/>
  <outline>
    <contour>
      <point x="389" y="695" type="line"/>
      <point x="389" y="695" type="line"/>
      <point x="375" y="632" type="line"/>
      <point x="438" y="632" type="line"/>
      <point x="452" y="695" type="line"/>
    </contour>
    <contour>
      <point x="452" y="695" type="line"/>
      <point x="452" y="695" type="line"/>
      <point x="438" y="632" type="line"/>
      <point x="501" y="632" type="line"/>
      <point x="515" y="695" type="line"/>
    </contour>
    <contour>
      <point x="375" y="632" type="line"/>
      <point x="375" y="632" type="line"/>
      <point x="362" y="569" type="line"/>
      <point x="425" y="569" type="line"/>
      <point x="438" y="632" type="line"/>
    </contour>
    <contour>
      <point x="438" y="632" type="line"/>
      <point x="438" y="632" type="line"/>
      <point x="425" y="569" type="line"/>
      <point x="488" y="569" type="line"/>
      <point x="501" y="632" type="line"/>
    </contour>
    <contour>
      <point x="300" y="569" type="line"/>
      <point x="300" y="569" type="line"/>
      <point x="287" y="507" type="line"/>
      <point x="349" y="507" type="line"/>
      <point x="362" y="569" type="line"/>
    </contour>
    <contour>
      <point x="362" y="569" type="line"/>
      <point x="362" y="569" type="line"/>
      <point x="349" y="507" type="line"/>
      <point x="412" y="507" type="line"/>
      <point x="425" y="569" type="line"/>
    </contour>
    <contour>
      <point x="287" y="507" type="line"/>
      <point x="287" y="507" type="line"/>
      <point x="273" y="444" type="line"/>
      <point x="335" y="444" type="line"/>
      <point x="349" y="507" type="line"/>
    </contour>
    <contour>
      <point x="349" y="507" type="line"/>
      <point x="349" y="507" type="line"/>
      <point x="335" y="444" type="line"/>
      <point x="398" y="444" type="line"/>
      <point x="412" y="507" type="line"/>
    </contour>
    <contour>
      <point x="273" y="444" type="line"/>
      <point x="273" y="444" type="line"/>
      <point x="260" y="381" type="line"/>
      <point x="322" y="381" type="line"/>
      <point x="335" y="444" type="line"/>
    </contour>
    <contour>
      <point x="335" y="444" type="line"/>
      <point x="335" y="444" type="line"/>
      <point x="322" y="381" type="line"/>
      <point x="385" y="381" type="line"/>
      <point x="398" y="444" type="line"/>
    </contour>
    <contour>
      <point x="197" y="381" type="line"/>
      <point x="197" y="381" type="line"/>
      <point x="183" y="318" type="line"/>
      <point x="246" y="318" type="line"/>
      <point x="260" y="381" type="line"/>
    </contour>
    <contour>
      <point x="260" y="381" type="line"/>
      <point x="260" y="381" type="line"/>
      <point x="246" y="318" type="line"/>
      <point x="308" y="318" type="line"/>
      <point x="322" y="381" type="line"/>
    </contour>
    <contour>
      <point x="120" y="318" type="line"/>
      <point x="120" y="318" type="line"/>
      <point x="107" y="255" type="line"/>
      <point x="170" y="255" type="line"/>
      <point x="183" y="318" type="line"/>
    </contour>
    <contour>
      <point x="183" y="318" type="line"/>
      <point x="183" y="318" type="line"/>
      <point x="170" y="255" type="line"/>
      <point x="233" y="255" type="line"/>
      <point x="246" y="318" type="line"/>
    </contour>
    <contour>
      <point x="107" y="255" type="line"/>
      <point x="107" y="255" type="line"/>
      <point x="94" y="193" type="line"/>
      <point x="157" y="193" type="line"/>
      <point x="170" y="255" type="line"/>
    </contour>
    <contour>
      <point x="170" y="255" type="line"/>
      <point x="170" y="255" type="line"/>
      <point x="157" y="193" type="line"/>
      <point x="220" y="193" type="line"/>
      <point x="233" y="255" type="line"/>
    </contour>
    <contour>
      <point x="94" y="193" type="line"/>
      <point x="94" y="193" type="line"/>
      <point x="80" y="130" type="line"/>
      <point x="143" y="130" type="line"/>
      <point x="157" y="193" type="line"/>
    </contour>
    <contour>
      <point x="157" y="193" type="line"/>
      <point x="157" y="193" type="line"/>
      <point x="143" y="130" type="line"/>
      <point x="206" y="130" type="line"/>
      <point x="220" y="193" type="line"/>
    </contour>
    <contour>
      <point x="17" y="130" type="line"/>
      <point x="17" y="130" type="line"/>
      <point x="4" y="67" type="line"/>
      <point x="67" y="67" type="line"/>
      <point x="80" y="130" type="line"/>
    </contour>
    <contour>
      <point x="80" y="130" type="line"/>
      <point x="80" y="130" type="line"/>
      <point x="67" y="67" type="line"/>
      <point x="130" y="67" type="line"/>
      <point x="143" y="130" type="line"/>
    </contour>
    <contour>
      <point x="4" y="67" type="line"/>
      <point x="4" y="67" type="line"/>
      <point x="-9" y="4" type="line"/>
      <point x="54" y="4" type="line"/>
      <point x="67" y="67" type="line"/>
    </contour>
    <contour>
      <point x="67" y="67" type="line"/>
      <point x="67" y="67" type="line"/>
      <point x="54" y="4" type="line"/>
      <point x="117" y="4" type="line"/>
      <point x="130" y="67" type="line"/>
    </contour>
  </outline>
</glyph>
<glyph name="zero" format="2">
  <advance width="556"/>
  <unicode hex="0030"/>
  <outline>
    <contour>
      <point x="253" y="696" type="line"/>
      <point x="253" y="696" type="line"/>
      <point x="241" y="639" type="line"/>
      <point x="299" y="639" type="line"/>
      <point x="311" y="696" type="line"/>
    </contour>
    <contour>
      <point x="311" y="696" type="line"/>
      <point x="311" y="696" type="line"/>
      <point x="299" y="639" type="line"/>
      <point x="356" y="639" type="line"/>
      <point x="368" y="696" type="line"/>
    </contour>
    <contour>
      <point x="368" y="696" type="line"/>
      <point x="368" y="696" type="line"/>
      <point x="356" y="639" type="line"/>
      <point x="414" y="639" type="line"/>
      <point x="426" y="696" type="line"/>
    </contour>
    <contour>
      <point x="426" y="696" type="line"/>
      <point x="426" y="696" type="line"/>
      <point x="414" y="639" type="line"/>
      <point x="471" y="639" type="line"/>
      <point x="483" y="696" type="line"/>
    </contour>
    <contour>
      <point x="183" y="639" type="line"/>
      <point x="183" y="639" type="line"/>
      <point x="170" y="581" type="line"/>
      <point x="228" y="581" type="line"/>
      <point x="241" y="639" type="line"/>
    </contour>
    <contour>
      <point x="241" y="639" type="line"/>
      <point x="241" y="639" type="line"/>
      <point x="228" y="581" type="line"/>
      <point x="286" y="581" type="line"/>
      <point x="299" y="639" type="line"/>
    </contour>
    <contour>
      <point x="414" y="639" type="line"/>
      <point x="414" y="639" type="line"/>
      <point x="401" y="581" type="line"/>
      <point x="458" y="581" type="line"/>
      <point x="471" y="639" type="line"/>
    </contour>
    <contour>
      <point x="471" y="639" type="line"/>
      <point x="471" y="639" type="line"/>
      <point x="458" y="581" type="line"/>
      <point x="516" y="581" type="line"/>
      <point x="529" y="639" type="line"/>
    </contour>
    <contour>
      <point x="113" y="581" type="line"/>
      <point x="113" y="581" type="line"/>
      <point x="101" y="523" type="line"/>
      <point x="158" y="523" type="line"/>
      <point x="170" y="581" type="line"/>
    </contour>
    <contour>
      <point x="170" y="581" type="line"/>
      <point x="170" y="581" type="line"/>
      <point x="158" y="523" type="line"/>
      <point x="216" y="523" type="line"/>
      <point x="228" y="581" type="line"/>
    </contour>
    <contour>
      <point x="458" y="581" type="line"/>
      <point x="458" y="581" type="line"/>
      <point x="446" y="523" type="line"/>
      <point x="504" y="523" type="line"/>
      <point x="516" y="581" type="line"/>
    </contour>
    <contour>
      <point x="516" y="581" type="line"/>
      <point x="516" y="581" type="line"/>
      <point x="504" y="523" type="line"/>
      <point x="562" y="523" type="line"/>
      <point x="574" y="581" type="line"/>
    </contour>
    <contour>
      <point x="101" y="523" type="line"/>
      <point x="101" y="523" type="line"/>
      <point x="89" y="466" type="line"/>
      <point x="146" y="466" type="line"/>
      <point x="158" y="523" type="line"/>
    </contour>
    <contour>
      <point x="158" y="523" type="line"/>
      <point x="158" y="523" type="line"/>
      <point x="146" y="466" type="line"/>
      <point x="204" y="466" type="line"/>
      <point x="216" y="523" type="line"/>
    </contour>
    <contour>
      <point x="446" y="523" type="line"/>
      <point x="446" y="523" type="line"/>
      <point x="434" y="466" type="line"/>
      <point x="492" y="466" type="line"/>
      <point x="504" y="523" type="line"/>
    </contour>
    <contour>
      <point x="504" y="523" type="line"/>
      <point x="504" y="523" type="line"/>
      <point x="492" y="466" type="line"/>
      <point x="550" y="466" type="line"/>
      <point x="562" y="523" type="line"/>
    </contour>
    <contour>
      <point x="89" y="466" type="line"/>
      <point x="89" y="466" type="line"/>
      <point x="77" y="408" type="line"/>
      <point x="134" y="408" type="line"/>
      <point x="146" y="466" type="line"/>
    </contour>
    <contour>
      <point x="146" y="466" type="line"/>
      <point x="146" y="466" type="line"/>
      <point x="134" y="408" type="line"/>
      <point x="192" y="408" type="line"/>
      <point x="204" y="466" type="line"/>
    </contour>
    <contour>
      <point x="434" y="466" type="line"/>
      <point x="434" y="466" type="line"/>
      <point x="422" y="408" type="line"/>
      <point x="480" y="408" type="line"/>
      <point x="492" y="466" type="line"/>
    </contour>
    <contour>
      <point x="492" y="466" type="line"/>
      <point x="492" y="466" type="line"/>
      <point x="480" y="408" type="line"/>
      <point x="538" y="408" type="line"/>
      <point x="550" y="466" type="line"/>
    </contour>
    <contour>
      <point x="77" y="408" type="line"/>
      <point x="77" y="408" type="line"/>
      <point x="64" y="351" type="line"/>
      <point x="121" y="351" type="line"/>
      <point x="134" y="408" type="line"/>
    </contour>
    <contour>
      <point x="134" y="408" type="line"/>
      <point x="134" y="408" type="line"/>
      <point x="121" y="351" type="line"/>
      <point x="179" y="351" type="line"/>
      <point x="192" y="408" type="line"/>
    </contour>
    <contour>
      <point x="422" y="408" type="line"/>
      <point x="422" y="408" type="line"/>
      <point x="409" y="351" type="line"/>
      <point x="467" y="351" type="line"/>
      <point x="480" y="408" type="line"/>
    </contour>
    <contour>
      <point x="480" y="408" type="line"/>
      <point x="480" y="408" type="line"/>
      <point x="467" y="351" type="line"/>
      <point x="525" y="351" type="line"/>
      <point x="538" y="408" type="line"/>
    </contour>
    <contour>
      <point x="64" y="351" type="line"/>
      <point x="64" y="351" type="line"/>
      <point x="52" y="293" type="line"/>
      <point x="109" y="293" type="line"/>
      <point x="121" y="351" type="line"/>
    </contour>
    <contour>
      <point x="121" y="351" type="line"/>
      <point x="121" y="351" type="line"/>
      <point x="109" y="293" type="line"/>
      <point x="167" y="293" type="line"/>
      <point x="179" y="351" type="line"/>
    </contour>
    <contour>
      <point x="409" y="351" type="line"/>
      <point x="409" y="351" type="line"/>
      <point x="397" y="293" type="line"/>
      <point x="455" y="293" type="line"/>
      <point x="467" y="351" type="line"/>
    </contour>
    <contour>
      <point x="467" y="351" type="line"/>
      <point x="467" y="351" type="line"/>
      <point x="455" y="293" type="line"/>
      <point x="513" y="293" type="line"/>
      <point x="525" y="351" type="line"/>
    </contour>
    <contour>
      <point x="52" y="293" type="line"/>
      <point x="52" y="293" type="line"/>
      <point x="40" y="235" type="line"/>
      <point x="97" y="235" type="line"/>
      <point x="109" y="293" type="line"/>
    </contour>
    <contour>
      <point x="109" y="293" type="line"/>
      <point x="109" y="293" type="line"/>
      <point x="97" y="235" type="line"/>
      <point x="155" y="235" type="line"/>
      <point x="167" y="293" type="line"/>
    </contour>
    <contour>
      <point x="397" y="293" type="line"/>
      <point x="397" y="293" type="line"/>
      <point x="385" y="235" type="line"/>
      <point x="443" y="235" type="line"/>
      <point x="455" y="293" type="line"/>
    </contour>
    <contour>
      <point x="455" y="293" type="line"/>
      <point x="455" y="293" type="line"/>
      <point x="443" y="235" type="line"/>
      <point x="501" y="235" type="line"/>
      <point x="513" y="293" type="line"/>
    </contour>
    <contour>
      <point x="40" y="235" type="line"/>
      <point x="40" y="235" type="line"/>
      <point x="28" y="178" type="line"/>
      <point x="85" y="178" type="line"/>
      <point x="97" y="235" type="line"/>
    </contour>
    <contour>
      <point x="97" y="235" type="line"/>
      <point x="97" y="235" type="line"/>
      <point x="85" y="178" type="line"/>
      <point x="143" y="178" type="line"/>
      <point x="155" y="235" type="line"/>
    </contour>
    <contour>
      <point x="385" y="235" type="line"/>
      <point x="385" y="235" type="line"/>
      <point x="373" y="178" type="line"/>
      <point x="431" y="178" type="line"/>
      <point x="443" y="235" type="line"/>
    </contour>
    <contour>
      <point x="443" y="235" type="line"/>
      <point x="443" y="235" type="line"/>
      <point x="431" y="178" type="line"/>
      <point x="489" y="178" type="line"/>
      <point x="501" y="235" type="line"/>
    </contour>
    <contour>
      <point x="28" y="178" type="line"/>
      <point x="28" y="178" type="line"/>
      <point x="15" y="120" type="line"/>
      <point x="72" y="120" type="line"/>
      <point x="85" y="178" type="line"/>
    </contour>
    <contour>
      <point x="85" y="178" type="line"/>
      <point x="85" y="178" type="line"/>
      <point x="72" y="120" type="line"/>
      <point x="130" y="120" type="line"/>
      <point x="143" y="178" type="line"/>
    </contour>
    <contour>
      <point x="373" y="178" type="line"/>
      <point x="373" y="178" type="line"/>
      <point x="360" y="120" type="line"/>
      <point x="418" y="120" type="line"/>
      <point x="431" y="178" type="line"/>
    </contour>
    <contour>
      <point x="431" y="178" type="line"/>
      <point x="431" y="178" type="line"/>
      <point x="418" y="120" type="line"/>
      <point x="476" y="120" type="line"/>
      <point x="489" y="178" type="line"/>
    </contour>
    <contour>
      <point x="72" y="120" type="line"/>
      <point x="72" y="120" type="line"/>
      <point x="60" y="62" type="line"/>
      <point x="118" y="62" type="line"/>
      <point x="130" y="120" type="line"/>
    </contour>
    <contour>
      <point x="130" y="120" type="line"/>
      <point x="130" y="120" type="line"/>
      <point x="118" y="62" type="line"/>
      <point x="176" y="62" type="line"/>
      <point x="188" y="120" type="line"/>
    </contour>
    <contour>
      <point x="303" y="120" type="line"/>
      <point x="303" y="120" type="line"/>
      <point x="291" y="62" type="line"/>
      <point x="348" y="62" type="line"/>
      <point x="360" y="120" type="line"/>
    </contour>
    <contour>
      <point x="360" y="120" type="line"/>
      <point x="360" y="120" type="line"/>
      <point x="348" y="62" type="line"/>
      <point x="406" y="62" type="line"/>
      <point x="418" y="120" type="line"/>
    </contour>
    <contour>
      <point x="118" y="62" type="line"/>
      <point x="118" y="62" type="line"/>
      <point x="106" y="5" type="line"/>
      <point x="164" y="5" type="line"/>
      <point x="176" y="62" type="line"/>
    </contour>
    <contour>
      <point x="176" y="62" type="line"/>
      <point x="176" y="62" type="line"/>
      <point x="164" y="5" type="line"/>
      <point x="221" y="5" type="line"/>
      <point x="233" y="62" type="line"/>
    </contour>
    <contour>
      <point x="233" y="62" type="line"/>
      <point x="233" y="62" type="line"/>
      <point x="221" y="5" type="line"/>
      <point x="279" y="5" type="line"/>
      <point x="291" y="62" type="line"/>
    </contour>
    <contour>
      <point x="291" y="62" type="line"/>
      <point x="291" y="62" type="line"/>
      <point x="279" y="5" type="line"/>
      <point x="336" y="5" type="line"/>
      <point x="348" y="62" type="line"/>
    </contour>
  </outline>
</glyph>
<glyph name="one" format="2">
  <advance width="379"/>
  <unicode hex="0031"/>
  <outline>
    <contour>
      <point x="307" y="697" type="line"/>
      <point x="307" y="697" type="line"/>
      <point x="295" y="639" type="line"/>
      <point x="352" y="639" type="line"/>
      <point x="364" y="697" type="line"/>
    </contour>
    <contour>
      <point x="364" y="697" type="line"/>
      <point x="364" y="697" type="line"/>
      <point x="352" y="639" type="line"/>
      <point x="410" y="639" type="line"/>
      <point x="422" y="697" type="line"/>
    </contour>
    <contour>
      <point x="237" y="639" type="line"/>
      <point x="237" y="639" type="line"/>
      <point x="225" y="582" type="line"/>
      <point x="283" y="582" type="line"/>
      <point x="295" y="639" type="line"/>
    </contour>
    <contour>
      <point x="295" y="639" type="line"/>
      <point x="295" y="639" type="line"/>
      <point x="283" y="582" type="line"/>
      <point x="340" y="582" type="line"/>
      <point x="352" y="639" type="line"/>
    </contour>
    <contour>
      <point x="352" y="639" type="line"/>
      <point x="352" y="639" type="line"/>
      <point x="340" y="582" type="line"/>
      <point x="398" y="582" type="line"/>
      <point x="410" y="639" type="line"/>
    </contour>
    <contour>
      <point x="167" y="582" type="line"/>
      <point x="167" y="582" type="line"/>
      <point x="154" y="524" type="line"/>
      <point x="212" y="524" type="line"/>
      <point x="225" y="582" type="line"/>
    </contour>
    <contour>
      <point x="225" y="582" type="line"/>
      <point x="225" y="582" type="line"/>
      <point x="212" y="524" type="line"/>
      <point x="270" y="524" type="line"/>
      <point x="283" y="582" type="line"/>
    </contour>
    <contour>
      <point x="283" y="582" type="line"/>
      <point x="283" y="582" type="line"/>
      <point x="270" y="524" type="line"/>
      <point x="327" y="524" type="line"/>
      <point x="340" y="582" type="line"/>
    </contour>
    <contour>
      <point x="340" y="582" type="line"/>
      <point x="340" y="582" type="line"/>
      <point x="327" y="524" type="line"/>
      <point x="385" y="524" type="line"/>
      <point x="398" y="582" type="line"/>
    </contour>
    <contour>
      <point x="96" y="524" type="line"/>
      <point x="96" y="524" type="line"/>
      <point x="84" y="466" type="line"/>
      <point x="142" y="466" type="line"/>
      <point x="154" y="524" type="line"/>
    </contour>
    <contour>
      <point x="154" y="524" type="line"/>
      <point x="154" y="524" type="line"/>
      <point x="142" y="466" type="line"/>
      <point x="200" y="466" type="line"/>
      <point x="212" y="524" type="line"/>
    </contour>
    <contour>
      <point x="270" y="524" type="line"/>
      <point x="270" y="524" type="line"/>
      <point x="258" y="466" type="line"/>
      <point x="315" y="466" type="line"/>
      <point x="327" y="524" type="line"/>
    </contour>
    <contour>
      <point x="327" y="524" type="line"/>
      <point x="327" y="524" type="line"/>
      <point x="315" y="466" type="line"/>
      <point x="373" y="466" type="line"/>
      <point x="385" y="524" type="line"/>
    </contour>
    <contour>
      <point x="258" y="466" type="line"/>
      <point x="258" y="466" type="line"/>
      <point x="246" y="408" type="line"/>
      <point x="303" y="408" type="line"/>
      <point x="315" y="466" type="line"/>
    </contour>
    <contour>
      <point x="315" y="466" type="line"/>
      <point x="315" y="466" type="line"/>
      <point x="303" y="408" type="line"/>
      <point x="361" y="408" type="line"/>
      <point x="373" y="466" type="line"/>
    </contour>
    <contour>
      <point x="246" y="408" type="line"/>
      <point x="246" y="408" type="line"/>
      <point x="233" y="351" type="line"/>
      <point x="290" y="351" type="line"/>
      <point x="303" y="408" type="line"/>
    </contour>
    <contour>
      <point x="303" y="408" type="line"/>
      <point x="303" y="408" type="line"/>
      <point x="290" y="351" type="line"/>
      <point x="348" y="351" type="line"/>
      <point x="361" y="408" type="line"/>
    </contour>
    <contour>
      <point x="233" y="351" type="line"/>
      <point x="233" y="351" type="line"/>
      <point x="221" y="293" type="line"/>
      <point x="278" y="293" type="line"/>
      <point x="290" y="351" type="line"/>
    </contour>
    <contour>
      <point x="290" y="351" type="line"/>
      <point x="290" y="351" type="line"/>
      <point x="278" y="293" type="line"/>
      <point x="336" y="293" type="line"/>
      <point x="348" y="351" type="line"/>
    </contour>
    <contour>
      <point x="221" y="293" type="line"/>
      <point x="221" y="293" type="line"/>
      <point x="209" y="235" type="line"/>
      <point x="266" y="235" type="line"/>
      <point x="278" y="293" type="line"/>
    </contour>
    <contour>
      <point x="278" y="293" type="line"/>
      <point x="278" y="293" type="line"/>
      <point x="266" y="235" type="line"/>
      <point x="324" y="235" type="line"/>
      <point x="336" y="293" type="line"/>
    </contour>
    <contour>
      <point x="209" y="235" type="line"/>
      <point x="209" y="235" type="line"/>
      <point x="196" y="177" type="line"/>
      <point x="253" y="177" type="line"/>
      <point x="266" y="235" type="line"/>
    </contour>
    <contour>
      <point x="266" y="235" type="line"/>
      <point x="266" y="235" type="line"/>
      <point x="253" y="177" type="line"/>
      <point x="311" y="177" type="line"/>
      <point x="324" y="235" type="line"/>
    </contour>
    <contour>
      <point x="196" y="177" type="line"/>
      <point x="196" y="177" type="line"/>
      <point x="184" y="120" type="line"/>
      <point x="241" y="120" type="line"/>
      <point x="253" y="177" type="line"/>
    </contour>
    <contour>
      <point x="253" y="177" type="line"/>
      <point x="253" y="177" type="line"/>
      <point x="241" y="120" type="line"/>
      <point x="299" y="120" type="line"/>
      <point x="311" y="177" type="line"/>
    </contour>
    <contour>
      <point x="184" y="120" type="line"/>
      <point x="184" y="120" type="line"/>
      <point x="172" y="62" type="line"/>
      <point x="229" y="62" type="line"/>
      <point x="241" y="120" type="line"/>
    </contour>
    <contour>
      <point x="241" y="120" type="line"/>
      <point x="241" y="120" type="line"/>
      <point x="229" y="62" type="line"/>
      <point x="287" y="62" type="line"/>
      <point x="299" y="120" type="line"/>
    </contour>
    <contour>
      <point x="172" y="62" type="line"/>
      <point x="172" y="62" type="line"/>
      <point x="160" y="4" type="line"/>
      <point x="217" y="4" type="line"/>
      <point x="229" y="62" type="line"/>
    </contour>
    <contour>
      <point x="229" y="62" type="line"/>
      <point x="229" y="62" type="line"/>
      <point x="217" y="4" type="line"/>
      <point x="275" y="4" type="line"/>
      <point x="287" y="62" type="line"/>
    </contour>
  </outline>
</glyph>
<glyph name="two" format="2">
  <advance width="557"/>
  <unicode hex="0032"/>
  <outline>
    <contour>
      <point x="254" y="697" type="line"/>
      <point x="254" y="697" type="line"/>
      <point x="242" y="639" type="line"/>
      <point x="299" y="639" type="line"/>
      <point x="311" y="697" type="line"/>
    </contour>
    <contour>
      <point x="311" y="697" type="line"/>
      <point x="311" y="697" type="line"/>
      <point x="299" y="639" type="line"/>
      <point x="357" y="639" type="line"/>
      <point x="369" y="697" type="line"/>
    </contour>
    <contour>
      <point x="369" y="697" type="line"/>
      <point x="369" y="697" type="line"/>
      <point x="357" y="639" type="line"/>
      <point x="415" y="639" type="line"/>
      <point x="427" y="697" type="line"/>
    </contour>
    <contour>
      <point x="427" y="697" type="line"/>
      <point x="427" y="697" type="line"/>
      <point x="415" y="639" type="line"/>
      <point x="472" y="639" type="line"/>
      <point x="484" y="697" type="line"/>
    </contour>
    <contour>
      <point x="184" y="639" type="line"/>
      <point x="184" y="639" type="line"/>
      <point x="172" y="582" type="line"/>
      <point x="230" y="582" type="line"/>
      <point x="242" y="639" type="line"/>
    </contour>
    <contour>
      <point x="242" y="639" type="line"/>
      <point x="242" y="639" type="line"/>
      <point x="230" y="582" type="line"/>
      <point x="287" y="582" type="line"/>
      <point x="299" y="639" type="line"/>
    </contour>
    <contour>
      <point x="415" y="639" type="line"/>
      <point x="415" y="639" type="line"/>
      <point x="403" y="582" type="line"/>
      <point x="460" y="582" type="line"/>
      <point x="472" y="639" type="line"/>
    </contour>
    <contour>
      <point x="472" y="639" type="line"/>
      <point x="472" y="639" type="line"/>
      <point x="460" y="582" type="line"/>
      <point x="518" y="582" type="line"/>
      <point x="530" y="639" type="line"/>
    </contour>
    <contour>
      <point x="114" y="582" type="line"/>
      <point x="114" y="582" type="line"/>
      <point x="101" y="524" type="line"/>
      <point x="159" y="524" type="line"/>
      <point x="172" y="582" type="line"/>
    </contour>
    <contour>
      <point x="172" y="582" type="line"/>
      <point x="172" y="582" type="line"/>
      <point x="159" y="524" type="line"/>
      <point x="217" y="524" type="line"/>
      <point x="230" y="582" type="line"/>
    </contour>
    <contour>
      <point x="460" y="582" type="line"/>
      <point x="460" y="582" type="line"/>
      <point x="447" y="524" type="line"/>
      <point x="505" y="524" type="line"/>
      <point x="518" y="582" type="line"/>
    </contour>
    <contour>
      <point x="518" y="582" type="line"/>
      <point x="518" y="582" type="line"/>
      <point x="505" y="524" type="line"/>
      <point x="563" y="524" type="line"/>
      <point x="576" y="582" type="line"/>
    </contour>
    <contour>
      <point x="447" y="524" type="line"/>
      <point x="447" y="524" type="line"/>
      <point x="435" y="466" type="line"/>
      <point x="493" y="466" type="line"/>
      <point x="505" y="524" type="line"/>
    </contour>
    <contour>
      <point x="505" y="524" type="line"/>
      <point x="505" y="524" type="line"/>
      <point x="493" y="466" type="line"/>
      <point x="551" y="466" type="line"/>
      <point x="563" y="524" type="line"/>
    </contour>
    <contour>
      <point x="435" y="466" type="line"/>
      <point x="435" y="466" type="line"/>
      <point x="423" y="409" type="line"/>
      <point x="481" y="409" type="line"/>
      <point x="493" y="466" type="line"/>
    </contour>
    <contour>
      <point x="493" y="466" type="line"/>
      <point x="493" y="466" type="line"/>
      <point x="481" y="409" type="line"/>
      <point x="539" y="409" type="line"/>
      <point x="551" y="466" type="line"/>
    </contour>
    <contour>
      <point x="366" y="409" type="line"/>
      <point x="366" y="409" type="line"/>
      <point x="353" y="351" type="line"/>
      <point x="410" y="351" type="line"/>
      <point x="423" y="409" type="line"/>
    </contour>
    <contour>
      <point x="423" y="409" type="line"/>
      <point x="423" y="409" type="line"/>
      <point x="410" y="351" type="line"/>
      <point x="468" y="351" type="line"/>
      <point x="481" y="409" type="line"/>
    </contour>
    <contour>
      <point x="353" y="351" type="line"/>
      <point x="353" y="351" type="line"/>
      <point x="341" y="293" type="line"/>
      <point x="398" y="293" type="line"/>
      <point x="410" y="351" type="line"/>
    </contour>
    <contour>
      <point x="410" y="351" type="line"/>
      <point x="410" y="351" type="line"/>
      <point x="398" y="293" type="line"/>
      <point x="456" y="293" type="line"/>
      <point x="468" y="351" type="line"/>
    </contour>
    <contour>
      <point x="283" y="293" type="line"/>
      <point x="283" y="293" type="line"/>
      <point x="271" y="236" type="line"/>
      <point x="329" y="236" type="line"/>
      <point x="341" y="293" type="line"/>
    </contour>
    <contour>
      <point x="341" y="293" type="line"/>
      <point x="341" y="293" type="line"/>
      <point x="329" y="236" type="line"/>
      <point x="386" y="236" type="line"/>
      <point x="398" y="293" type="line"/>
    </contour>
    <contour>
      <point x="213" y="236" type="line"/>
      <point x="213" y="236" type="line"/>
      <point x="201" y="178" type="line"/>
      <point x="259" y="178" type="line"/>
      <point x="271" y="236" type="line"/>
    </contour>
    <contour>
      <point x="271" y="236" type="line"/>
      <point x="271" y="236" type="line"/>
      <point x="259" y="178" type="line"/>
      <point x="317" y="178" type="line"/>
      <point x="329" y="236" type="line"/>
    </contour>
    <contour>
      <point x="144" y="178" type="line"/>
      <point x="144" y="178" type="line"/>
      <point x="131" y="120" type="line"/>
      <point x="188" y="120" type="line"/>
      <point x="201" y="178" type="line"/>
    </contour>
    <contour>
      <point x="201" y="178" type="line"/>
      <point x="201" y="178" type="line"/>
      <point x="188" y="120" type="line"/>
      <point x="246" y="120" type="line"/>
      <point x="259" y="178" type="line"/>
    </contour>
    <contour>
      <point x="73" y="120" type="line"/>
      <point x="73" y="120" type="line"/>
      <point x="61" y="63" type="line"/>
      <point x="119" y="63" type="line"/>
      <point x="131" y="120" type="line"/>
    </contour>
    <contour>
      <point x="131" y="120" type="line"/>
      <point x="131" y="120" type="line"/>
      <point x="119" y="63" type="line"/>
      <point x="176" y="63" type="line"/>
      <point x="188" y="120" type="line"/>
    </contour>
    <contour>
      <point x="3" y="63" type="line"/>
      <point x="3" y="63" type="line"/>
      <point x="-9" y="5" type="line"/>
      <point x="49" y="5" type="line"/>
      <point x="61" y="63" type="line"/>
    </contour>
    <contour>
      <point x="61" y="63" type="line"/>
      <point x="61" y="63" type="line"/>
      <point x="49" y="5" type="line"/>
      <point x="107" y="5" type="line"/>
      <point x="119" y="63" type="line"/>
    </contour>
    <contour>
      <point x="119" y="63" type="line"/>
      <point x="119" y="63" type="line"/>
      <point x="107" y="5" type="line"/>
      <point x="164" y="5" type="line"/>
      <point x="176" y="63" type="line"/>
    </contour>
    <contour>
      <point x="176" y="63" type="line"/>
      <point x="176" y="63" type="line"/>
      <point x="164" y="5" type="line"/>
      <point x="222" y="5" type="line"/>
      <point x="234" y="63" type="line"/>
    </contour>
    <contour>
      <point x="234" y="63" type="line"/>
      <point x="234" y="63" type="line"/>
      <point x="222" y="5" type="line"/>
      <point x="280" y="5" type="line"/>
      <point x="292" y="63" type="line"/>
    </contour>
    <contour>
      <point x="292" y="63" type="line"/>
      <point x="292" y="63" type="line"/>
      <point x="280" y="5" type="line"/>
      <point x="337" y="5" type="line"/>
      <point x="349" y="63" type="line"/>
    </contour>
    <contour>
      <point x="349" y="63" type="line"/>
      <point x="349" y="63" type="line"/>
      <point x="337" y="5" type="line"/>
      <point x="395" y="5" type="line"/>
      <point x="407" y="63" type="line"/>
    </contour>
    <contour>
      <point x="407" y="63" type="line"/>
      <point x="407" y="63" type="line"/>
      <point x="395" y="5" type="line"/>
      <point x="453" y="5" type="line"/>
      <point x="465" y="63" type="line"/>
    </contour>
  </outline>
</glyph>
<glyph name="three" format="2">
  <advance width="557"/>
  <unicode hex="0033"/>
  <outline>
    <contour>
      <point x="254" y="697" type="line"/>
      <point x="254" y="697" type="line"/>
      <point x="242" y="639" type="line"/>
      <point x="299" y="639" type="line"/>
      <point x="311" y="697" type="line"/>
    </contour>
    <contour>
      <point x="311" y="697" type="line"/>
      <point x="311" y="697" type="line"/>
      <point x="299" y="639" type="line"/>
      <point x="357" y="639" type="line"/>
      <point x="369" y="697" type="line"/>
    </contour>
    <contour>
      <point x="369" y="697" type="line"/>
      <point x="369" y="697" type="line"/>
      <point x="357" y="639" type="line"/>
      <point x="415" y="639" type="line"/>
      <point x="427" y="697" type="line"/>
    </contour>
    <contour>
      <point x="427" y="697" type="line"/>
      <point x="427" y="697" type="line"/>
      <point x="415" y="639" type="line"/>
      <point x="472" y="639" type="line"/>
      <point x="484" y="697" type="line"/>
    </contour>
    <contour>
      <point x="184" y="639" type="line"/>
      <point x="184" y="639" type="line"/>
      <point x="172" y="582" type="line"/>
      <point x="230" y="582" type="line"/>
      <point x="242" y="639" type="line"/>
    </contour>
    <contour>
      <point x="242" y="639" type="line"/>
      <point x="242" y="639" type="line"/>
      <point x="230" y="582" type="line"/>
      <point x="287" y="582" type="line"/>
      <point x="299" y="639" type="line"/>
    </contour>
    <contour>
      <point x="415" y="639" type="line"/>
      <point x="415" y="639" type="line"/>
      <point x="403" y="582" type="line"/>
      <point x="460" y="582" type="line"/>
      <point x="472" y="639" type="line"/>
    </contour>
    <contour>
      <point x="472" y="639" type="line"/>
      <point x="472" y="639" type="line"/>
      <point x="460" y="582" type="line"/>
      <point x="518" y="582" type="line"/>
      <point x="530" y="639" type="line"/>
    </contour>
    <contour>
      <point x="114" y="582" type="line"/>
      <point x="114" y="582" type="line"/>
      <point x="101" y="524" type="line"/>
      <point x="159" y="524" type="line"/>
      <point x="172" y="582" type="line"/>
    </contour>
    <contour>
      <point x="172" y="582" type="line"/>
      <point x="172" y="582" type="line"/>
      <point x="159" y="524" type="line"/>
      <point x="217" y="524" type="line"/>
      <point x="230" y="582" type="line"/>
    </contour>
    <contour>
      <point x="403" y="582" type="line"/>
      <point x="403" y="582" type="line"/>
      <point x="390" y="524" type="line"/>
      <point x="447" y="524" type="line"/>
      <point x="460" y="582" type="line"/>
    </contour>
    <contour>
      <point x="460" y="582" type="line"/>
      <point x="460" y="582" type="line"/>
      <point x="447" y="524" type="line"/>
      <point x="505" y="524" type="line"/>
      <point x="518" y="582" type="line"/>
    </contour>
    <contour>
      <point x="390" y="524" type="line"/>
      <point x="390" y="524" type="line"/>
      <point x="378" y="466" type="line"/>
      <point x="435" y="466" type="line"/>
      <point x="447" y="524" type="line"/>
    </contour>
    <contour>
      <point x="447" y="524" type="line"/>
      <point x="447" y="524" type="line"/>
      <point x="435" y="466" type="line"/>
      <point x="493" y="466" type="line"/>
      <point x="505" y="524" type="line"/>
    </contour>
    <contour>
      <point x="320" y="466" type="line"/>
      <point x="320" y="466" type="line"/>
      <point x="308" y="408" type="line"/>
      <point x="366" y="408" type="line"/>
      <point x="378" y="466" type="line"/>
    </contour>
    <contour>
      <point x="378" y="466" type="line"/>
      <point x="378" y="466" type="line"/>
      <point x="366" y="408" type="line"/>
      <point x="423" y="408" type="line"/>
      <point x="435" y="466" type="line"/>
    </contour>
    <contour>
      <point x="193" y="408" type="line"/>
      <point x="193" y="408" type="line"/>
      <point x="180" y="351" type="line"/>
      <point x="237" y="351" type="line"/>
      <point x="250" y="408" type="line"/>
    </contour>
    <contour>
      <point x="250" y="408" type="line"/>
      <point x="250" y="408" type="line"/>
      <point x="237" y="351" type="line"/>
      <point x="295" y="351" type="line"/>
      <point x="308" y="408" type="line"/>
    </contour>
    <contour>
      <point x="308" y="408" type="line"/>
      <point x="308" y="408" type="line"/>
      <point x="295" y="351" type="line"/>
      <point x="353" y="351" type="line"/>
      <point x="366" y="408" type="line"/>
    </contour>
    <contour>
      <point x="366" y="408" type="line"/>
      <point x="366" y="408" type="line"/>
      <point x="353" y="351" type="line"/>
      <point x="410" y="351" type="line"/>
      <point x="423" y="408" type="line"/>
    </contour>
    <contour>
      <point x="353" y="351" type="line"/>
      <point x="353" y="351" type="line"/>
      <point x="341" y="293" type="line"/>
      <point x="398" y="293" type="line"/>
      <point x="410" y="351" type="line"/>
    </contour>
    <contour>
      <point x="410" y="351" type="line"/>
      <point x="410" y="351" type="line"/>
      <point x="398" y="293" type="line"/>
      <point x="456" y="293" type="line"/>
      <point x="468" y="351" type="line"/>
    </contour>
    <contour>
      <point x="398" y="293" type="line"/>
      <point x="398" y="293" type="line"/>
      <point x="386" y="235" type="line"/>
      <point x="444" y="235" type="line"/>
      <point x="456" y="293" type="line"/>
    </contour>
    <contour>
      <point x="456" y="293" type="line"/>
      <point x="456" y="293" type="line"/>
      <point x="444" y="235" type="line"/>
      <point x="502" y="235" type="line"/>
      <point x="514" y="293" type="line"/>
    </contour>
    <contour>
      <point x="386" y="235" type="line"/>
      <point x="386" y="235" type="line"/>
      <point x="374" y="178" type="line"/>
      <point x="432" y="178" type="line"/>
      <point x="444" y="235" type="line"/>
    </contour>
    <contour>
      <point x="444" y="235" type="line"/>
      <point x="444" y="235" type="line"/>
      <point x="432" y="178" type="line"/>
      <point x="490" y="178" type="line"/>
      <point x="502" y="235" type="line"/>
    </contour>
    <contour>
      <point x="28" y="178" type="line"/>
      <point x="28" y="178" type="line"/>
      <point x="15" y="120" type="line"/>
      <point x="73" y="120" type="line"/>
      <point x="86" y="178" type="line"/>
    </contour>
    <contour>
      <point x="86" y="178" type="line"/>
      <point x="86" y="178" type="line"/>
      <point x="73" y="120" type="line"/>
      <point x="131" y="120" type="line"/>
      <point x="144" y="178" type="line"/>
    </contour>
    <contour>
      <point x="374" y="178" type="line"/>
      <point x="374" y="178" type="line"/>
      <point x="361" y="120" type="line"/>
      <point x="419" y="120" type="line"/>
      <point x="432" y="178" type="line"/>
    </contour>
    <contour>
      <point x="432" y="178" type="line"/>
      <point x="432" y="178" type="line"/>
      <point x="419" y="120" type="line"/>
      <point x="477" y="120" type="line"/>
      <point x="490" y="178" type="line"/>
    </contour>
    <contour>
      <point x="15" y="120" type="line"/>
      <point x="15" y="120" type="line"/>
      <point x="3" y="62" type="line"/>
      <point x="61" y="62" type="line"/>
      <point x="73" y="120" type="line"/>
    </contour>
    <contour>
      <point x="73" y="120" type="line"/>
      <point x="73" y="120" type="line"/>
      <point x="61" y="62" type="line"/>
      <point x="119" y="62" type="line"/>
      <point x="131" y="120" type="line"/>
    </contour>
    <contour>
      <point x="131" y="120" type="line"/>
      <point x="131" y="120" type="line"/>
      <point x="119" y="62" type="line"/>
      <point x="176" y="62" type="line"/>
      <point x="188" y="120" type="line"/>
    </contour>
    <contour>
      <point x="304" y="120" type="line"/>
      <point x="304" y="120" type="line"/>
      <point x="292" y="62" type="line"/>
      <point x="349" y="62" type="line"/>
      <point x="361" y="120" type="line"/>
    </contour>
    <contour>
      <point x="361" y="120" type="line"/>
      <point x="361" y="120" type="line"/>
      <point x="349" y="62" type="line"/>
      <point x="407" y="62" type="line"/>
      <point x="419" y="120" type="line"/>
    </contour>
    <contour>
      <point x="119" y="62" type="line"/>
      <point x="119" y="62" type="line"/>
      <point x="107" y="4" type="line"/>
      <point x="164" y="4" type="line"/>
      <point x="176" y="62" type="line"/>
    </contour>
    <contour>
      <point x="176" y="62" type="line"/>
      <point x="176" y="62" type="line"/>
      <point x="164" y="4" type="line"/>
      <point x="222" y="4" type="line"/>
      <point x="234" y="62" type="line"/>
    </contour>
    <contour>
      <point x="234" y="62" type="line"/>
      <point x="234" y="62" type="line"/>
      <point x="222" y="4" type="line"/>
      <point x="280" y="4" type="line"/>
      <point x="292" y="62" type="line"/>
    </contour>
    <contour>
      <point x="292" y="62" type="line"/>
      <point x="292" y="62" type="line"/>
      <point x="280" y="4" type="line"/>
      <point x="337" y="4" type="line"/>
      <point x="349" y="62" type="line"/>
    </contour>
  </outline>
</glyph>
<glyph name="four" format="2">
  <advance width="613"/>
  <unicode hex="0034"/>
  <outline>
    <contour>
      <point x="426" y="697" type="line"/>
      <point x="426" y="697" type="line"/>
      <point x="414" y="640" type="line"/>
      <point x="472" y="640" type="line"/>
      <point x="484" y="697" type="line"/>
    </contour>
    <contour>
      <point x="484" y="697" type="line"/>
      <point x="484" y="697" type="line"/>
      <point x="472" y="640" type="line"/>
      <point x="529" y="640" type="line"/>
      <point x="541" y="697" type="line"/>
    </contour>
    <contour>
      <point x="357" y="640" type="line"/>
      <point x="357" y="640" type="line"/>
      <point x="345" y="582" type="line"/>
      <point x="402" y="582" type="line"/>
      <point x="414" y="640" type="line"/>
    </contour>
    <contour>
      <point x="414" y="640" type="line"/>
      <point x="414" y="640" type="line"/>
      <point x="402" y="582" type="line"/>
      <point x="460" y="582" type="line"/>
      <point x="472" y="640" type="line"/>
    </contour>
    <contour>
      <point x="472" y="640" type="line"/>
      <point x="472" y="640" type="line"/>
      <point x="460" y="582" type="line"/>
      <point x="517" y="582" type="line"/>
      <point x="529" y="640" type="line"/>
    </contour>
    <contour>
      <point x="287" y="582" type="line"/>
      <point x="287" y="582" type="line"/>
      <point x="274" y="525" type="line"/>
      <point x="332" y="525" type="line"/>
      <point x="345" y="582" type="line"/>
    </contour>
    <contour>
      <point x="345" y="582" type="line"/>
      <point x="345" y="582" type="line"/>
      <point x="332" y="525" type="line"/>
      <point x="389" y="525" type="line"/>
      <point x="402" y="582" type="line"/>
    </contour>
    <contour>
      <point x="402" y="582" type="line"/>
      <point x="402" y="582" type="line"/>
      <point x="389" y="525" type="line"/>
      <point x="447" y="525" type="line"/>
      <point x="460" y="582" type="line"/>
    </contour>
    <contour>
      <point x="460" y="582" type="line"/>
      <point x="460" y="582" type="line"/>
      <point x="447" y="525" type="line"/>
      <point x="504" y="525" type="line"/>
      <point x="517" y="582" type="line"/>
    </contour>
    <contour>
      <point x="274" y="525" type="line"/>
      <point x="274" y="525" type="line"/>
      <point x="262" y="467" type="line"/>
      <point x="320" y="467" type="line"/>
      <point x="332" y="525" type="line"/>
    </contour>
    <contour>
      <point x="332" y="525" type="line"/>
      <point x="332" y="525" type="line"/>
      <point x="320" y="467" type="line"/>
      <point x="377" y="467" type="line"/>
      <point x="389" y="525" type="line"/>
    </contour>
    <contour>
      <point x="389" y="525" type="line"/>
      <point x="389" y="525" type="line"/>
      <point x="377" y="467" type="line"/>
      <point x="435" y="467" type="line"/>
      <point x="447" y="525" type="line"/>
    </contour>
    <contour>
      <point x="447" y="525" type="line"/>
      <point x="447" y="525" type="line"/>
      <point x="435" y="467" type="line"/>
      <point x="492" y="467" type="line"/>
      <point x="504" y="525" type="line"/>
    </contour>
    <contour>
      <point x="205" y="467" type="line"/>
      <point x="205" y="467" type="line"/>
      <point x="193" y="410" type="line"/>
      <point x="250" y="410" type="line"/>
      <point x="262" y="467" type="line"/>
    </contour>
    <contour>
      <point x="262" y="467" type="line"/>
      <point x="262" y="467" type="line"/>
      <point x="250" y="410" type="line"/>
      <point x="308" y="410" type="line"/>
      <point x="320" y="467" type="line"/>
    </contour>
    <contour>
      <point x="377" y="467" type="line"/>
      <point x="377" y="467" type="line"/>
      <point x="365" y="410" type="line"/>
      <point x="423" y="410" type="line"/>
      <point x="435" y="467" type="line"/>
    </contour>
    <contour>
      <point x="435" y="467" type="line"/>
      <point x="435" y="467" type="line"/>
      <point x="423" y="410" type="line"/>
      <point x="480" y="410" type="line"/>
      <point x="492" y="467" type="line"/>
    </contour>
    <contour>
      <point x="193" y="410" type="line"/>
      <point x="193" y="410" type="line"/>
      <point x="181" y="352" type="line"/>
      <point x="238" y="352" type="line"/>
      <point x="250" y="410" type="line"/>
    </contour>
    <contour>
      <point x="250" y="410" type="line"/>
      <point x="250" y="410" type="line"/>
      <point x="238" y="352" type="line"/>
      <point x="296" y="352" type="line"/>
      <point x="308" y="410" type="line"/>
    </contour>
    <contour>
      <point x="365" y="410" type="line"/>
      <point x="365" y="410" type="line"/>
      <point x="353" y="352" type="line"/>
      <point x="411" y="352" type="line"/>
      <point x="423" y="410" type="line"/>
    </contour>
    <contour>
      <point x="423" y="410" type="line"/>
      <point x="423" y="410" type="line"/>
      <point x="411" y="352" type="line"/>
      <point x="468" y="352" type="line"/>
      <point x="480" y="410" type="line"/>
    </contour>
    <contour>
      <point x="123" y="352" type="line"/>
      <point x="123" y="352" type="line"/>
      <point x="111" y="295" type="line"/>
      <point x="169" y="295" type="line"/>
      <point x="181" y="352" type="line"/>
    </contour>
    <contour>
      <point x="181" y="352" type="line"/>
      <point x="181" y="352" type="line"/>
      <point x="169" y="295" type="line"/>
      <point x="226" y="295" type="line"/>
      <point x="238" y="352" type="line"/>
    </contour>
    <contour>
      <point x="353" y="352" type="line"/>
      <point x="353" y="352" type="line"/>
      <point x="341" y="295" type="line"/>
      <point x="399" y="295" type="line"/>
      <point x="411" y="352" type="line"/>
    </contour>
    <contour>
      <point x="411" y="352" type="line"/>
      <point x="411" y="352" type="line"/>
      <point x="399" y="295" type="line"/>
      <point x="456" y="295" type="line"/>
      <point x="468" y="352" type="line"/>
    </contour>
    <contour>
      <point x="54" y="295" type="line"/>
      <point x="54" y="295" type="line"/>
      <point x="41" y="237" type="line"/>
      <point x="98" y="237" type="line"/>
      <point x="111" y="295" type="line"/>
    </contour>
    <contour>
      <point x="111" y="295" type="line"/>
      <point x="111" y="295" type="line"/>
      <point x="98" y="237" type="line"/>
      <point x="156" y="237" type="line"/>
      <point x="169" y="295" type="line"/>
    </contour>
    <contour>
      <point x="341" y="295" type="line"/>
      <point x="341" y="295" type="line"/>
      <point x="328" y="237" type="line"/>
      <point x="386" y="237" type="line"/>
      <point x="399" y="295" type="line"/>
    </contour>
    <contour>
      <point x="399" y="295" type="line"/>
      <point x="399" y="295" type="line"/>
      <point x="386" y="237" type="line"/>
      <point x="443" y="237" type="line"/>
      <point x="456" y="295" type="line"/>
    </contour>
    <contour>
      <point x="41" y="237" type="line"/>
      <point x="41" y="237" type="line"/>
      <point x="29" y="180" type="line"/>
      <point x="86" y="180" type="line"/>
      <point x="98" y="237" type="line"/>
    </contour>
    <contour>
      <point x="98" y="237" type="line"/>
      <point x="98" y="237" type="line"/>
      <point x="86" y="180" type="line"/>
      <point x="144" y="180" type="line"/>
      <point x="156" y="237" type="line"/>
    </contour>
    <contour>
      <point x="156" y="237" type="line"/>
      <point x="156" y="237" type="line"/>
      <point x="144" y="180" type="line"/>
      <point x="201" y="180" type="line"/>
      <point x="213" y="237" type="line"/>
    </contour>
    <contour>
      <point x="213" y="237" type="line"/>
      <point x="213" y="237" type="line"/>
      <point x="201" y="180" type="line"/>
      <point x="259" y="180" type="line"/>
      <point x="271" y="237" type="line"/>
    </contour>
    <contour>
      <point x="271" y="237" type="line"/>
      <point x="271" y="237" type="line"/>
      <point x="259" y="180" type="line"/>
      <point x="316" y="180" type="line"/>
      <point x="328" y="237" type="line"/>
    </contour>
    <contour>
      <point x="328" y="237" type="line"/>
      <point x="328" y="237" type="line"/>
      <point x="316" y="180" type="line"/>
      <point x="374" y="180" type="line"/>
      <point x="386" y="237" type="line"/>
    </contour>
    <contour>
      <point x="386" y="237" type="line"/>
      <point x="386" y="237" type="line"/>
      <point x="374" y="180" type="line"/>
      <point x="431" y="180" type="line"/>
      <point x="443" y="237" type="line"/>
    </contour>
    <contour>
      <point x="443" y="237" type="line"/>
      <point x="443" y="237" type="line"/>
      <point x="431" y="180" type="line"/>
      <point x="489" y="180" type="line"/>
      <point x="501" y="237" type="line"/>
    </contour>
    <contour>
      <point x="501" y="237" type="line"/>
      <point x="501" y="237" type="line"/>
      <point x="489" y="180" type="line"/>
      <point x="546" y="180" type="line"/>
      <point x="558" y="237" type="line"/>
    </contour>
    <contour>
      <point x="316" y="180" type="line"/>
      <point x="316" y="180" type="line"/>
      <point x="304" y="122" type="line"/>
      <point x="362" y="122" type="line"/>
      <point x="374" y="180" type="line"/>
    </contour>
    <contour>
      <point x="374" y="180" type="line"/>
      <point x="374" y="180" type="line"/>
      <point x="362" y="122" type="line"/>
      <point x="419" y="122" type="line"/>
      <point x="431" y="180" type="line"/>
    </contour>
    <contour>
      <point x="304" y="122" type="line"/>
      <point x="304" y="122" type="line"/>
      <point x="292" y="65" type="line"/>
      <point x="350" y="65" type="line"/>
      <point x="362" y="122" type="line"/>
    </contour>
    <contour>
      <point x="362" y="122" type="line"/>
      <point x="362" y="122" type="line"/>
      <point x="350" y="65" type="line"/>
      <point x="407" y="65" type="line"/>
      <point x="419" y="122" type="line"/>
    </contour>
    <contour>
      <point x="292" y="65" type="line"/>
      <point x="292" y="65" type="line"/>
      <point x="279" y="7" type="line"/>
      <point x="337" y="7" type="line"/>
      <point x="350" y="65" type="line"/>
    </contour>
    <contour>
      <point x="350" y="65" type="line"/>
      <point x="350" y="65" type="line"/>
      <point x="337" y="7" type="line"/>
      <point x="394" y="7" type="line"/>
      <point x="407" y="65" type="line"/>
    </contour>
  </outline>
</glyph>
<glyph name="five" format="2">
  <advance width="556"/>
  <unicode hex="0035"/>
  <outline>
    <contour>
      <point x="195" y="697" type="line"/>
      <point x="195" y="697" type="line"/>
      <point x="183" y="640" type="line"/>
      <point x="241" y="640" type="line"/>
      <point x="253" y="697" type="line"/>
    </contour>
    <contour>
      <point x="253" y="697" type="line"/>
      <point x="253" y="697" type="line"/>
      <point x="241" y="640" type="line"/>
      <point x="299" y="640" type="line"/>
      <point x="311" y="697" type="line"/>
    </contour>
    <contour>
      <point x="311" y="697" type="line"/>
      <point x="311" y="697" type="line"/>
      <point x="299" y="640" type="line"/>
      <point x="356" y="640" type="line"/>
      <point x="368" y="697" type="line"/>
    </contour>
    <contour>
      <point x="368" y="697" type="line"/>
      <point x="368" y="697" type="line"/>
      <point x="356" y="640" type="line"/>
      <point x="414" y="640" type="line"/>
      <point x="426" y="697" type="line"/>
    </contour>
    <contour>
      <point x="426" y="697" type="line"/>
      <point x="426" y="697" type="line"/>
      <point x="414" y="640" type="line"/>
      <point x="471" y="640" type="line"/>
      <point x="483" y="697" type="line"/>
    </contour>
    <contour>
      <point x="483" y="697" type="line"/>
      <point x="483" y="697" type="line"/>
      <point x="471" y="640" type="line"/>
      <point x="529" y="640" type="line"/>
      <point x="541" y="697" type="line"/>
    </contour>
    <contour>
      <point x="541" y="697" type="line"/>
      <point x="541" y="697" type="line"/>
      <point x="529" y="640" type="line"/>
      <point x="587" y="640" type="line"/>
      <point x="599" y="697" type="line"/>
    </contour>
    <contour>
      <point x="183" y="640" type="line"/>
      <point x="183" y="640" type="line"/>
      <point x="171" y="582" type="line"/>
      <point x="229" y="582" type="line"/>
      <point x="241" y="640" type="line"/>
    </contour>
    <contour>
      <point x="241" y="640" type="line"/>
      <point x="241" y="640" type="line"/>
      <point x="229" y="582" type="line"/>
      <point x="287" y="582" type="line"/>
      <point x="299" y="640" type="line"/>
    </contour>
    <contour>
      <point x="171" y="582" type="line"/>
      <point x="171" y="582" type="line"/>
      <point x="158" y="524" type="line"/>
      <point x="216" y="524" type="line"/>
      <point x="229" y="582" type="line"/>
    </contour>
    <contour>
      <point x="229" y="582" type="line"/>
      <point x="229" y="582" type="line"/>
      <point x="216" y="524" type="line"/>
      <point x="274" y="524" type="line"/>
      <point x="287" y="582" type="line"/>
    </contour>
    <contour>
      <point x="101" y="524" type="line"/>
      <point x="101" y="524" type="line"/>
      <point x="89" y="467" type="line"/>
      <point x="146" y="467" type="line"/>
      <point x="158" y="524" type="line"/>
    </contour>
    <contour>
      <point x="158" y="524" type="line"/>
      <point x="158" y="524" type="line"/>
      <point x="146" y="467" type="line"/>
      <point x="204" y="467" type="line"/>
      <point x="216" y="524" type="line"/>
    </contour>
    <contour>
      <point x="89" y="467" type="line"/>
      <point x="89" y="467" type="line"/>
      <point x="77" y="409" type="line"/>
      <point x="134" y="409" type="line"/>
      <point x="146" y="467" type="line"/>
    </contour>
    <contour>
      <point x="146" y="467" type="line"/>
      <point x="146" y="467" type="line"/>
      <point x="134" y="409" type="line"/>
      <point x="192" y="409" type="line"/>
      <point x="204" y="467" type="line"/>
    </contour>
    <contour>
      <point x="204" y="467" type="line"/>
      <point x="204" y="467" type="line"/>
      <point x="192" y="409" type="line"/>
      <point x="250" y="409" type="line"/>
      <point x="262" y="467" type="line"/>
    </contour>
    <contour>
      <point x="262" y="467" type="line"/>
      <point x="262" y="467" type="line"/>
      <point x="250" y="409" type="line"/>
      <point x="307" y="409" type="line"/>
      <point x="319" y="467" type="line"/>
    </contour>
    <contour>
      <point x="319" y="467" type="line"/>
      <point x="319" y="467" type="line"/>
      <point x="307" y="409" type="line"/>
      <point x="365" y="409" type="line"/>
      <point x="377" y="467" type="line"/>
    </contour>
    <contour>
      <point x="377" y="467" type="line"/>
      <point x="377" y="467" type="line"/>
      <point x="365" y="409" type="line"/>
      <point x="422" y="409" type="line"/>
      <point x="434" y="467" type="line"/>
    </contour>
    <contour>
      <point x="77" y="409" type="line"/>
      <point x="77" y="409" type="line"/>
      <point x="64" y="351" type="line"/>
      <point x="121" y="351" type="line"/>
      <point x="134" y="409" type="line"/>
    </contour>
    <contour>
      <point x="134" y="409" type="line"/>
      <point x="134" y="409" type="line"/>
      <point x="121" y="351" type="line"/>
      <point x="179" y="351" type="line"/>
      <point x="192" y="409" type="line"/>
    </contour>
    <contour>
      <point x="365" y="409" type="line"/>
      <point x="365" y="409" type="line"/>
      <point x="352" y="351" type="line"/>
      <point x="409" y="351" type="line"/>
      <point x="422" y="409" type="line"/>
    </contour>
    <contour>
      <point x="422" y="409" type="line"/>
      <point x="422" y="409" type="line"/>
      <point x="409" y="351" type="line"/>
      <point x="467" y="351" type="line"/>
      <point x="480" y="409" type="line"/>
    </contour>
    <contour>
      <point x="409" y="351" type="line"/>
      <point x="409" y="351" type="line"/>
      <point x="397" y="294" type="line"/>
      <point x="455" y="294" type="line"/>
      <point x="467" y="351" type="line"/>
    </contour>
    <contour>
      <point x="467" y="351" type="line"/>
      <point x="467" y="351" type="line"/>
      <point x="455" y="294" type="line"/>
      <point x="513" y="294" type="line"/>
      <point x="525" y="351" type="line"/>
    </contour>
    <contour>
      <point x="397" y="294" type="line"/>
      <point x="397" y="294" type="line"/>
      <point x="385" y="236" type="line"/>
      <point x="443" y="236" type="line"/>
      <point x="455" y="294" type="line"/>
    </contour>
    <contour>
      <point x="455" y="294" type="line"/>
      <point x="455" y="294" type="line"/>
      <point x="443" y="236" type="line"/>
      <point x="501" y="236" type="line"/>
      <point x="513" y="294" type="line"/>
    </contour>
    <contour>
      <point x="385" y="236" type="line"/>
      <point x="385" y="236" type="line"/>
      <point x="373" y="178" type="line"/>
      <point x="431" y="178" type="line"/>
      <point x="443" y="236" type="line"/>
    </contour>
    <contour>
      <point x="443" y="236" type="line"/>
      <point x="443" y="236" type="line"/>
      <point x="431" y="178" type="line"/>
      <point x="489" y="178" type="line"/>
      <point x="501" y="236" type="line"/>
    </contour>
    <contour>
      <point x="28" y="178" type="line"/>
      <point x="28" y="178" type="line"/>
      <point x="16" y="121" type="line"/>
      <point x="73" y="121" type="line"/>
      <point x="85" y="178" type="line"/>
    </contour>
    <contour>
      <point x="85" y="178" type="line"/>
      <point x="85" y="178" type="line"/>
      <point x="73" y="121" type="line"/>
      <point x="131" y="121" type="line"/>
      <point x="143" y="178" type="line"/>
    </contour>
    <contour>
      <point x="373" y="178" type="line"/>
      <point x="373" y="178" type="line"/>
      <point x="361" y="121" type="line"/>
      <point x="419" y="121" type="line"/>
      <point x="431" y="178" type="line"/>
    </contour>
    <contour>
      <point x="431" y="178" type="line"/>
      <point x="431" y="178" type="line"/>
      <point x="419" y="121" type="line"/>
      <point x="477" y="121" type="line"/>
      <point x="489" y="178" type="line"/>
    </contour>
    <contour>
      <point x="73" y="121" type="line"/>
      <point x="73" y="121" type="line"/>
      <point x="60" y="63" type="line"/>
      <point x="118" y="63" type="line"/>
      <point x="131" y="121" type="line"/>
    </contour>
    <contour>
      <point x="131" y="121" type="line"/>
      <point x="131" y="121" type="line"/>
      <point x="118" y="63" type="line"/>
      <point x="176" y="63" type="line"/>
      <point x="189" y="121" type="line"/>
    </contour>
    <contour>
      <point x="304" y="121" type="line"/>
      <point x="304" y="121" type="line"/>
      <point x="291" y="63" type="line"/>
      <point x="348" y="63" type="line"/>
      <point x="361" y="121" type="line"/>
    </contour>
    <contour>
      <point x="361" y="121" type="line"/>
      <point x="361" y="121" type="line"/>
      <point x="348" y="63" type="line"/>
      <point x="406" y="63" type="line"/>
      <point x="419" y="121" type="line"/>
    </contour>
    <contour>
      <point x="118" y="63" type="line"/>
      <point x="118" y="63" type="line"/>
      <point x="106" y="5" type="line"/>
      <point x="164" y="5" type="line"/>
      <point x="176" y="63" type="line"/>
    </contour>
    <contour>
      <point x="176" y="63" type="line"/>
      <point x="176" y="63" type="line"/>
      <point x="164" y="5" type="line"/>
      <point x="221" y="5" type="line"/>
      <point x="233" y="63" type="line"/>
    </contour>
    <contour>
      <point x="233" y="63" type="line"/>
      <point x="233" y="63" type="line"/>
      <point x="221" y="5" type="line"/>
      <point x="279" y="5" type="line"/>
      <point x="291" y="63" type="line"/>
    </contour>
    <contour>
      <point x="291" y="63" type="line"/>
      <point x="291" y="63" type="line"/>
      <point x="279" y="5" type="line"/>
      <point x="336" y="5" type="line"/>
      <point x="348" y="63" type="line"/>
    </contour>
  </outline>
</glyph>
<glyph name="six" format="2">
  <advance width="557"/>
  <unicode hex="0036"/>
  <outline>
    <contour>
      <point x="254" y="697" type="line"/>
      <point x="254" y="697" type="line"/>
      <point x="242" y="639" type="line"/>
      <point x="299" y="639" type="line"/>
      <point x="311" y="697" type="line"/>
    </contour>
    <contour>
      <point x="311" y="697" type="line"/>
      <point x="311" y="697" type="line"/>
      <point x="299" y="639" type="line"/>
      <point x="357" y="639" type="line"/>
      <point x="369" y="697" type="line"/>
    </contour>
    <contour>
      <point x="369" y="697" type="line"/>
      <point x="369" y="697" type="line"/>
      <point x="357" y="639" type="line"/>
      <point x="415" y="639" type="line"/>
      <point x="427" y="697" type="line"/>
    </contour>
    <contour>
      <point x="427" y="697" type="line"/>
      <point x="427" y="697" type="line"/>
      <point x="415" y="639" type="line"/>
      <point x="472" y="639" type="line"/>
      <point x="484" y="697" type="line"/>
    </contour>
    <contour>
      <point x="184" y="639" type="line"/>
      <point x="184" y="639" type="line"/>
      <point x="172" y="582" type="line"/>
      <point x="230" y="582" type="line"/>
      <point x="242" y="639" type="line"/>
    </contour>
    <contour>
      <point x="242" y="639" type="line"/>
      <point x="242" y="639" type="line"/>
      <point x="230" y="582" type="line"/>
      <point x="287" y="582" type="line"/>
      <point x="299" y="639" type="line"/>
    </contour>
    <contour>
      <point x="415" y="639" type="line"/>
      <point x="415" y="639" type="line"/>
      <point x="403" y="582" type="line"/>
      <point x="460" y="582" type="line"/>
      <point x="472" y="639" type="line"/>
    </contour>
    <contour>
      <point x="472" y="639" type="line"/>
      <point x="472" y="639" type="line"/>
      <point x="460" y="582" type="line"/>
      <point x="518" y="582" type="line"/>
      <point x="530" y="639" type="line"/>
    </contour>
    <contour>
      <point x="114" y="582" type="line"/>
      <point x="114" y="582" type="line"/>
      <point x="101" y="524" type="line"/>
      <point x="159" y="524" type="line"/>
      <point x="172" y="582" type="line"/>
    </contour>
    <contour>
      <point x="172" y="582" type="line"/>
      <point x="172" y="582" type="line"/>
      <point x="159" y="524" type="line"/>
      <point x="217" y="524" type="line"/>
      <point x="230" y="582" type="line"/>
    </contour>
    <contour>
      <point x="101" y="524" type="line"/>
      <point x="101" y="524" type="line"/>
      <point x="89" y="466" type="line"/>
      <point x="147" y="466" type="line"/>
      <point x="159" y="524" type="line"/>
    </contour>
    <contour>
      <point x="159" y="524" type="line"/>
      <point x="159" y="524" type="line"/>
      <point x="147" y="466" type="line"/>
      <point x="205" y="466" type="line"/>
      <point x="217" y="524" type="line"/>
    </contour>
    <contour>
      <point x="89" y="466" type="line"/>
      <point x="89" y="466" type="line"/>
      <point x="77" y="409" type="line"/>
      <point x="135" y="409" type="line"/>
      <point x="147" y="466" type="line"/>
    </contour>
    <contour>
      <point x="147" y="466" type="line"/>
      <point x="147" y="466" type="line"/>
      <point x="135" y="409" type="line"/>
      <point x="193" y="409" type="line"/>
      <point x="205" y="466" type="line"/>
    </contour>
    <contour>
      <point x="205" y="466" type="line"/>
      <point x="205" y="466" type="line"/>
      <point x="193" y="409" type="line"/>
      <point x="250" y="409" type="line"/>
      <point x="262" y="466" type="line"/>
    </contour>
    <contour>
      <point x="262" y="466" type="line"/>
      <point x="262" y="466" type="line"/>
      <point x="250" y="409" type="line"/>
      <point x="308" y="409" type="line"/>
      <point x="320" y="466" type="line"/>
    </contour>
    <contour>
      <point x="320" y="466" type="line"/>
      <point x="320" y="466" type="line"/>
      <point x="308" y="409" type="line"/>
      <point x="366" y="409" type="line"/>
      <point x="378" y="466" type="line"/>
    </contour>
    <contour>
      <point x="378" y="466" type="line"/>
      <point x="378" y="466" type="line"/>
      <point x="366" y="409" type="line"/>
      <point x="423" y="409" type="line"/>
      <point x="435" y="466" type="line"/>
    </contour>
    <contour>
      <point x="77" y="409" type="line"/>
      <point x="77" y="409" type="line"/>
      <point x="64" y="351" type="line"/>
      <point x="122" y="351" type="line"/>
      <point x="135" y="409" type="line"/>
    </contour>
    <contour>
      <point x="135" y="409" type="line"/>
      <point x="135" y="409" type="line"/>
      <point x="122" y="351" type="line"/>
      <point x="180" y="351" type="line"/>
      <point x="193" y="409" type="line"/>
    </contour>
    <contour>
      <point x="193" y="409" type="line"/>
      <point x="193" y="409" type="line"/>
      <point x="180" y="351" type="line"/>
      <point x="237" y="351" type="line"/>
      <point x="250" y="409" type="line"/>
    </contour>
    <contour>
      <point x="366" y="409" type="line"/>
      <point x="366" y="409" type="line"/>
      <point x="353" y="351" type="line"/>
      <point x="410" y="351" type="line"/>
      <point x="423" y="409" type="line"/>
    </contour>
    <contour>
      <point x="423" y="409" type="line"/>
      <point x="423" y="409" type="line"/>
      <point x="410" y="351" type="line"/>
      <point x="468" y="351" type="line"/>
      <point x="481" y="409" type="line"/>
    </contour>
    <contour>
      <point x="64" y="351" type="line"/>
      <point x="64" y="351" type="line"/>
      <point x="52" y="293" type="line"/>
      <point x="110" y="293" type="line"/>
      <point x="122" y="351" type="line"/>
    </contour>
    <contour>
      <point x="122" y="351" type="line"/>
      <point x="122" y="351" type="line"/>
      <point x="110" y="293" type="line"/>
      <point x="168" y="293" type="line"/>
      <point x="180" y="351" type="line"/>
    </contour>
    <contour>
      <point x="410" y="351" type="line"/>
      <point x="410" y="351" type="line"/>
      <point x="398" y="293" type="line"/>
      <point x="456" y="293" type="line"/>
      <point x="468" y="351" type="line"/>
    </contour>
    <contour>
      <point x="468" y="351" type="line"/>
      <point x="468" y="351" type="line"/>
      <point x="456" y="293" type="line"/>
      <point x="514" y="293" type="line"/>
      <point x="526" y="351" type="line"/>
    </contour>
    <contour>
      <point x="52" y="293" type="line"/>
      <point x="52" y="293" type="line"/>
      <point x="40" y="236" type="line"/>
      <point x="98" y="236" type="line"/>
      <point x="110" y="293" type="line"/>
    </contour>
    <contour>
      <point x="110" y="293" type="line"/>
      <point x="110" y="293" type="line"/>
      <point x="98" y="236" type="line"/>
      <point x="156" y="236" type="line"/>
      <point x="168" y="293" type="line"/>
    </contour>
    <contour>
      <point x="398" y="293" type="line"/>
      <point x="398" y="293" type="line"/>
      <point x="386" y="236" type="line"/>
      <point x="444" y="236" type="line"/>
      <point x="456" y="293" type="line"/>
    </contour>
    <contour>
      <point x="456" y="293" type="line"/>
      <point x="456" y="293" type="line"/>
      <point x="444" y="236" type="line"/>
      <point x="502" y="236" type="line"/>
      <point x="514" y="293" type="line"/>
    </contour>
    <contour>
      <point x="40" y="236" type="line"/>
      <point x="40" y="236" type="line"/>
      <point x="28" y="178" type="line"/>
      <point x="86" y="178" type="line"/>
      <point x="98" y="236" type="line"/>
    </contour>
    <contour>
      <point x="98" y="236" type="line"/>
      <point x="98" y="236" type="line"/>
      <point x="86" y="178" type="line"/>
      <point x="144" y="178" type="line"/>
      <point x="156" y="236" type="line"/>
    </contour>
    <contour>
      <point x="386" y="236" type="line"/>
      <point x="386" y="236" type="line"/>
      <point x="374" y="178" type="line"/>
      <point x="432" y="178" type="line"/>
      <point x="444" y="236" type="line"/>
    </contour>
    <contour>
      <point x="444" y="236" type="line"/>
      <point x="444" y="236" type="line"/>
      <point x="432" y="178" type="line"/>
      <point x="490" y="178" type="line"/>
      <point x="502" y="236" type="line"/>
    </contour>
    <contour>
      <point x="28" y="178" type="line"/>
      <point x="28" y="178" type="line"/>
      <point x="15" y="120" type="line"/>
      <point x="73" y="120" type="line"/>
      <point x="86" y="178" type="line"/>
    </contour>
    <contour>
      <point x="86" y="178" type="line"/>
      <point x="86" y="178" type="line"/>
      <point x="73" y="120" type="line"/>
      <point x="131" y="120" type="line"/>
      <point x="144" y="178" type="line"/>
    </contour>
    <contour>
      <point x="374" y="178" type="line"/>
      <point x="374" y="178" type="line"/>
      <point x="361" y="120" type="line"/>
      <point x="419" y="120" type="line"/>
      <point x="432" y="178" type="line"/>
    </contour>
    <contour>
      <point x="432" y="178" type="line"/>
      <point x="432" y="178" type="line"/>
      <point x="419" y="120" type="line"/>
      <point x="477" y="120" type="line"/>
      <point x="490" y="178" type="line"/>
    </contour>
    <contour>
      <point x="73" y="120" type="line"/>
      <point x="73" y="120" type="line"/>
      <point x="61" y="63" type="line"/>
      <point x="119" y="63" type="line"/>
      <point x="131" y="120" type="line"/>
    </contour>
    <contour>
      <point x="131" y="120" type="line"/>
      <point x="131" y="120" type="line"/>
      <point x="119" y="63" type="line"/>
      <point x="176" y="63" type="line"/>
      <point x="188" y="120" type="line"/>
    </contour>
    <contour>
      <point x="304" y="120" type="line"/>
      <point x="304" y="120" type="line"/>
      <point x="292" y="63" type="line"/>
      <point x="349" y="63" type="line"/>
      <point x="361" y="120" type="line"/>
    </contour>
    <contour>
      <point x="361" y="120" type="line"/>
      <point x="361" y="120" type="line"/>
      <point x="349" y="63" type="line"/>
      <point x="407" y="63" type="line"/>
      <point x="419" y="120" type="line"/>
    </contour>
    <contour>
      <point x="119" y="63" type="line"/>
      <point x="119" y="63" type="line"/>
      <point x="107" y="5" type="line"/>
      <point x="164" y="5" type="line"/>
      <point x="176" y="63" type="line"/>
    </contour>
    <contour>
      <point x="176" y="63" type="line"/>
      <point x="176" y="63" type="line"/>
      <point x="164" y="5" type="line"/>
      <point x="222" y="5" type="line"/>
      <point x="234" y="63" type="line"/>
    </contour>
    <contour>
      <point x="234" y="63" type="line"/>
      <point x="234" y="63" type="line"/>
      <point x="222" y="5" type="line"/>
      <point x="280" y="5" type="line"/>
      <point x="292" y="63" type="line"/>
    </contour>
    <contour>
      <point x="292" y="63" type="line"/>
      <point x="292" y="63" type="line"/>
      <point x="280" y="5" type="line"/>
      <point x="337" y="5" type="line"/>
      <point x="349" y="63" type="line"/>
    </contour>
  </outline>
</glyph>
<glyph name="seven" format="2">
  <advance width="555"/>
  <unicode hex="0037"/>
  <outline>
    <contour>
      <point x="138" y="697" type="line"/>
      <point x="138" y="697" type="line"/>
      <point x="126" y="640" type="line"/>
      <point x="183" y="640" type="line"/>
      <point x="195" y="697" type="line"/>
    </contour>
    <contour>
      <point x="195" y="697" type="line"/>
      <point x="195" y="697" type="line"/>
      <point x="183" y="640" type="line"/>
      <point x="241" y="640" type="line"/>
      <point x="253" y="697" type="line"/>
    </contour>
    <contour>
      <point x="253" y="697" type="line"/>
      <point x="253" y="697" type="line"/>
      <point x="241" y="640" type="line"/>
      <point x="299" y="640" type="line"/>
      <point x="311" y="697" type="line"/>
    </contour>
    <contour>
      <point x="311" y="697" type="line"/>
      <point x="311" y="697" type="line"/>
      <point x="299" y="640" type="line"/>
      <point x="356" y="640" type="line"/>
      <point x="368" y="697" type="line"/>
    </contour>
    <contour>
      <point x="368" y="697" type="line"/>
      <point x="368" y="697" type="line"/>
      <point x="356" y="640" type="line"/>
      <point x="414" y="640" type="line"/>
      <point x="426" y="697" type="line"/>
    </contour>
    <contour>
      <point x="426" y="697" type="line"/>
      <point x="426" y="697" type="line"/>
      <point x="414" y="640" type="line"/>
      <point x="472" y="640" type="line"/>
      <point x="484" y="697" type="line"/>
    </contour>
    <contour>
      <point x="484" y="697" type="line"/>
      <point x="484" y="697" type="line"/>
      <point x="472" y="640" type="line"/>
      <point x="529" y="640" type="line"/>
      <point x="541" y="697" type="line"/>
    </contour>
    <contour>
      <point x="541" y="697" type="line"/>
      <point x="541" y="697" type="line"/>
      <point x="529" y="640" type="line"/>
      <point x="587" y="640" type="line"/>
      <point x="599" y="697" type="line"/>
    </contour>
    <contour>
      <point x="414" y="640" type="line"/>
      <point x="414" y="640" type="line"/>
      <point x="402" y="582" type="line"/>
      <point x="460" y="582" type="line"/>
      <point x="472" y="640" type="line"/>
    </contour>
    <contour>
      <point x="472" y="640" type="line"/>
      <point x="472" y="640" type="line"/>
      <point x="460" y="582" type="line"/>
      <point x="517" y="582" type="line"/>
      <point x="529" y="640" type="line"/>
    </contour>
    <contour>
      <point x="402" y="582" type="line"/>
      <point x="402" y="582" type="line"/>
      <point x="389" y="524" type="line"/>
      <point x="447" y="524" type="line"/>
      <point x="460" y="582" type="line"/>
    </contour>
    <contour>
      <point x="460" y="582" type="line"/>
      <point x="460" y="582" type="line"/>
      <point x="447" y="524" type="line"/>
      <point x="504" y="524" type="line"/>
      <point x="517" y="582" type="line"/>
    </contour>
    <contour>
      <point x="331" y="524" type="line"/>
      <point x="331" y="524" type="line"/>
      <point x="319" y="467" type="line"/>
      <point x="377" y="467" type="line"/>
      <point x="389" y="524" type="line"/>
    </contour>
    <contour>
      <point x="389" y="524" type="line"/>
      <point x="389" y="524" type="line"/>
      <point x="377" y="467" type="line"/>
      <point x="435" y="467" type="line"/>
      <point x="447" y="524" type="line"/>
    </contour>
    <contour>
      <point x="319" y="467" type="line"/>
      <point x="319" y="467" type="line"/>
      <point x="307" y="409" type="line"/>
      <point x="365" y="409" type="line"/>
      <point x="377" y="467" type="line"/>
    </contour>
    <contour>
      <point x="377" y="467" type="line"/>
      <point x="377" y="467" type="line"/>
      <point x="365" y="409" type="line"/>
      <point x="423" y="409" type="line"/>
      <point x="435" y="467" type="line"/>
    </contour>
    <contour>
      <point x="250" y="409" type="line"/>
      <point x="250" y="409" type="line"/>
      <point x="237" y="351" type="line"/>
      <point x="294" y="351" type="line"/>
      <point x="307" y="409" type="line"/>
    </contour>
    <contour>
      <point x="307" y="409" type="line"/>
      <point x="307" y="409" type="line"/>
      <point x="294" y="351" type="line"/>
      <point x="352" y="351" type="line"/>
      <point x="365" y="409" type="line"/>
    </contour>
    <contour>
      <point x="237" y="351" type="line"/>
      <point x="237" y="351" type="line"/>
      <point x="225" y="294" type="line"/>
      <point x="282" y="294" type="line"/>
      <point x="294" y="351" type="line"/>
    </contour>
    <contour>
      <point x="294" y="351" type="line"/>
      <point x="294" y="351" type="line"/>
      <point x="282" y="294" type="line"/>
      <point x="340" y="294" type="line"/>
      <point x="352" y="351" type="line"/>
    </contour>
    <contour>
      <point x="225" y="294" type="line"/>
      <point x="225" y="294" type="line"/>
      <point x="213" y="236" type="line"/>
      <point x="270" y="236" type="line"/>
      <point x="282" y="294" type="line"/>
    </contour>
    <contour>
      <point x="282" y="294" type="line"/>
      <point x="282" y="294" type="line"/>
      <point x="270" y="236" type="line"/>
      <point x="328" y="236" type="line"/>
      <point x="340" y="294" type="line"/>
    </contour>
    <contour>
      <point x="213" y="236" type="line"/>
      <point x="213" y="236" type="line"/>
      <point x="201" y="178" type="line"/>
      <point x="258" y="178" type="line"/>
      <point x="270" y="236" type="line"/>
    </contour>
    <contour>
      <point x="270" y="236" type="line"/>
      <point x="270" y="236" type="line"/>
      <point x="258" y="178" type="line"/>
      <point x="316" y="178" type="line"/>
      <point x="328" y="236" type="line"/>
    </contour>
    <contour>
      <point x="143" y="178" type="line"/>
      <point x="143" y="178" type="line"/>
      <point x="131" y="121" type="line"/>
      <point x="189" y="121" type="line"/>
      <point x="201" y="178" type="line"/>
    </contour>
    <contour>
      <point x="201" y="178" type="line"/>
      <point x="201" y="178" type="line"/>
      <point x="189" y="121" type="line"/>
      <point x="246" y="121" type="line"/>
      <point x="258" y="178" type="line"/>
    </contour>
    <contour>
      <point x="131" y="121" type="line"/>
      <point x="131" y="121" type="line"/>
      <point x="118" y="63" type="line"/>
      <point x="176" y="63" type="line"/>
      <point x="189" y="121" type="line"/>
    </contour>
    <contour>
      <point x="189" y="121" type="line"/>
      <point x="189" y="121" type="line"/>
      <point x="176" y="63" type="line"/>
      <point x="233" y="63" type="line"/>
      <point x="246" y="121" type="line"/>
    </contour>
    <contour>
      <point x="118" y="63" type="line"/>
      <point x="118" y="63" type="line"/>
      <point x="106" y="5" type="line"/>
      <point x="164" y="5" type="line"/>
      <point x="176" y="63" type="line"/>
    </contour>
    <contour>
      <point x="176" y="63" type="line"/>
      <point x="176" y="63" type="line"/>
      <point x="164" y="5" type="line"/>
      <point x="221" y="5" type="line"/>
      <point x="233" y="63" type="line"/>
    </contour>
  </outline>
</glyph>
<glyph name="eight" format="2">
  <advance width="557"/>
  <unicode hex="0038"/>
  <outline>
    <contour>
      <point x="253" y="697" type="line"/>
      <point x="253" y="697" type="line"/>
      <point x="241" y="639" type="line"/>
      <point x="299" y="639" type="line"/>
      <point x="311" y="697" type="line"/>
    </contour>
    <contour>
      <point x="311" y="697" type="line"/>
      <point x="311" y="697" type="line"/>
      <point x="299" y="639" type="line"/>
      <point x="357" y="639" type="line"/>
      <point x="369" y="697" type="line"/>
    </contour>
    <contour>
      <point x="369" y="697" type="line"/>
      <point x="369" y="697" type="line"/>
      <point x="357" y="639" type="line"/>
      <point x="415" y="639" type="line"/>
      <point x="427" y="697" type="line"/>
    </contour>
    <contour>
      <point x="427" y="697" type="line"/>
      <point x="427" y="697" type="line"/>
      <point x="415" y="639" type="line"/>
      <point x="472" y="639" type="line"/>
      <point x="484" y="697" type="line"/>
    </contour>
    <contour>
      <point x="183" y="639" type="line"/>
      <point x="183" y="639" type="line"/>
      <point x="171" y="582" type="line"/>
      <point x="229" y="582" type="line"/>
      <point x="241" y="639" type="line"/>
    </contour>
    <contour>
      <point x="241" y="639" type="line"/>
      <point x="241" y="639" type="line"/>
      <point x="229" y="582" type="line"/>
      <point x="287" y="582" type="line"/>
      <point x="299" y="639" type="line"/>
    </contour>
    <contour>
      <point x="415" y="639" type="line"/>
      <point x="415" y="639" type="line"/>
      <point x="403" y="582" type="line"/>
      <point x="460" y="582" type="line"/>
      <point x="472" y="639" type="line"/>
    </contour>
    <contour>
      <point x="472" y="639" type="line"/>
      <point x="472" y="639" type="line"/>
      <point x="460" y="582" type="line"/>
      <point x="518" y="582" type="line"/>
      <point x="530" y="639" type="line"/>
    </contour>
    <contour>
      <point x="113" y="582" type="line"/>
      <point x="113" y="582" type="line"/>
      <point x="100" y="524" type="line"/>
      <point x="158" y="524" type="line"/>
      <point x="171" y="582" type="line"/>
    </contour>
    <contour>
      <point x="171" y="582" type="line"/>
      <point x="171" y="582" type="line"/>
      <point x="158" y="524" type="line"/>
      <point x="216" y="524" type="line"/>
      <point x="229" y="582" type="line"/>
    </contour>
    <contour>
      <point x="460" y="582" type="line"/>
      <point x="460" y="582" type="line"/>
      <point x="447" y="524" type="line"/>
      <point x="505" y="524" type="line"/>
      <point x="518" y="582" type="line"/>
    </contour>
    <contour>
      <point x="518" y="582" type="line"/>
      <point x="518" y="582" type="line"/>
      <point x="505" y="524" type="line"/>
      <point x="563" y="524" type="line"/>
      <point x="576" y="582" type="line"/>
    </contour>
    <contour>
      <point x="100" y="524" type="line"/>
      <point x="100" y="524" type="line"/>
      <point x="88" y="466" type="line"/>
      <point x="146" y="466" type="line"/>
      <point x="158" y="524" type="line"/>
    </contour>
    <contour>
      <point x="158" y="524" type="line"/>
      <point x="158" y="524" type="line"/>
      <point x="146" y="466" type="line"/>
      <point x="204" y="466" type="line"/>
      <point x="216" y="524" type="line"/>
    </contour>
    <contour>
      <point x="447" y="524" type="line"/>
      <point x="447" y="524" type="line"/>
      <point x="435" y="466" type="line"/>
      <point x="493" y="466" type="line"/>
      <point x="505" y="524" type="line"/>
    </contour>
    <contour>
      <point x="505" y="524" type="line"/>
      <point x="505" y="524" type="line"/>
      <point x="493" y="466" type="line"/>
      <point x="551" y="466" type="line"/>
      <point x="563" y="524" type="line"/>
    </contour>
    <contour>
      <point x="146" y="466" type="line"/>
      <point x="146" y="466" type="line"/>
      <point x="134" y="408" type="line"/>
      <point x="192" y="408" type="line"/>
      <point x="204" y="466" type="line"/>
    </contour>
    <contour>
      <point x="204" y="466" type="line"/>
      <point x="204" y="466" type="line"/>
      <point x="192" y="408" type="line"/>
      <point x="250" y="408" type="line"/>
      <point x="262" y="466" type="line"/>
    </contour>
    <contour>
      <point x="378" y="466" type="line"/>
      <point x="378" y="466" type="line"/>
      <point x="366" y="408" type="line"/>
      <point x="423" y="408" type="line"/>
      <point x="435" y="466" type="line"/>
    </contour>
    <contour>
      <point x="435" y="466" type="line"/>
      <point x="435" y="466" type="line"/>
      <point x="423" y="408" type="line"/>
      <point x="481" y="408" type="line"/>
      <point x="493" y="466" type="line"/>
    </contour>
    <contour>
      <point x="192" y="408" type="line"/>
      <point x="192" y="408" type="line"/>
      <point x="179" y="350" type="line"/>
      <point x="237" y="350" type="line"/>
      <point x="250" y="408" type="line"/>
    </contour>
    <contour>
      <point x="250" y="408" type="line"/>
      <point x="250" y="408" type="line"/>
      <point x="237" y="350" type="line"/>
      <point x="295" y="350" type="line"/>
      <point x="308" y="408" type="line"/>
    </contour>
    <contour>
      <point x="308" y="408" type="line"/>
      <point x="308" y="408" type="line"/>
      <point x="295" y="350" type="line"/>
      <point x="353" y="350" type="line"/>
      <point x="366" y="408" type="line"/>
    </contour>
    <contour>
      <point x="366" y="408" type="line"/>
      <point x="366" y="408" type="line"/>
      <point x="353" y="350" type="line"/>
      <point x="410" y="350" type="line"/>
      <point x="423" y="408" type="line"/>
    </contour>
    <contour>
      <point x="121" y="350" type="line"/>
      <point x="121" y="350" type="line"/>
      <point x="109" y="292" type="line"/>
      <point x="167" y="292" type="line"/>
      <point x="179" y="350" type="line"/>
    </contour>
    <contour>
      <point x="179" y="350" type="line"/>
      <point x="179" y="350" type="line"/>
      <point x="167" y="292" type="line"/>
      <point x="225" y="292" type="line"/>
      <point x="237" y="350" type="line"/>
    </contour>
    <contour>
      <point x="353" y="350" type="line"/>
      <point x="353" y="350" type="line"/>
      <point x="341" y="292" type="line"/>
      <point x="398" y="292" type="line"/>
      <point x="410" y="350" type="line"/>
    </contour>
    <contour>
      <point x="410" y="350" type="line"/>
      <point x="410" y="350" type="line"/>
      <point x="398" y="292" type="line"/>
      <point x="456" y="292" type="line"/>
      <point x="468" y="350" type="line"/>
    </contour>
    <contour>
      <point x="51" y="292" type="line"/>
      <point x="51" y="292" type="line"/>
      <point x="39" y="235" type="line"/>
      <point x="97" y="235" type="line"/>
      <point x="109" y="292" type="line"/>
    </contour>
    <contour>
      <point x="109" y="292" type="line"/>
      <point x="109" y="292" type="line"/>
      <point x="97" y="235" type="line"/>
      <point x="155" y="235" type="line"/>
      <point x="167" y="292" type="line"/>
    </contour>
    <contour>
      <point x="398" y="292" type="line"/>
      <point x="398" y="292" type="line"/>
      <point x="386" y="235" type="line"/>
      <point x="444" y="235" type="line"/>
      <point x="456" y="292" type="line"/>
    </contour>
    <contour>
      <point x="456" y="292" type="line"/>
      <point x="456" y="292" type="line"/>
      <point x="444" y="235" type="line"/>
      <point x="502" y="235" type="line"/>
      <point x="514" y="292" type="line"/>
    </contour>
    <contour>
      <point x="39" y="235" type="line"/>
      <point x="39" y="235" type="line"/>
      <point x="26" y="177" type="line"/>
      <point x="84" y="177" type="line"/>
      <point x="97" y="235" type="line"/>
    </contour>
    <contour>
      <point x="97" y="235" type="line"/>
      <point x="97" y="235" type="line"/>
      <point x="84" y="177" type="line"/>
      <point x="142" y="177" type="line"/>
      <point x="155" y="235" type="line"/>
    </contour>
    <contour>
      <point x="386" y="235" type="line"/>
      <point x="386" y="235" type="line"/>
      <point x="373" y="177" type="line"/>
      <point x="431" y="177" type="line"/>
      <point x="444" y="235" type="line"/>
    </contour>
    <contour>
      <point x="444" y="235" type="line"/>
      <point x="444" y="235" type="line"/>
      <point x="431" y="177" type="line"/>
      <point x="489" y="177" type="line"/>
      <point x="502" y="235" type="line"/>
    </contour>
    <contour>
      <point x="26" y="177" type="line"/>
      <point x="26" y="177" type="line"/>
      <point x="14" y="119" type="line"/>
      <point x="72" y="119" type="line"/>
      <point x="84" y="177" type="line"/>
    </contour>
    <contour>
      <point x="84" y="177" type="line"/>
      <point x="84" y="177" type="line"/>
      <point x="72" y="119" type="line"/>
      <point x="130" y="119" type="line"/>
      <point x="142" y="177" type="line"/>
    </contour>
    <contour>
      <point x="373" y="177" type="line"/>
      <point x="373" y="177" type="line"/>
      <point x="361" y="119" type="line"/>
      <point x="419" y="119" type="line"/>
      <point x="431" y="177" type="line"/>
    </contour>
    <contour>
      <point x="431" y="177" type="line"/>
      <point x="431" y="177" type="line"/>
      <point x="419" y="119" type="line"/>
      <point x="477" y="119" type="line"/>
      <point x="489" y="177" type="line"/>
    </contour>
    <contour>
      <point x="72" y="119" type="line"/>
      <point x="72" y="119" type="line"/>
      <point x="60" y="61" type="line"/>
      <point x="118" y="61" type="line"/>
      <point x="130" y="119" type="line"/>
    </contour>
    <contour>
      <point x="130" y="119" type="line"/>
      <point x="130" y="119" type="line"/>
      <point x="118" y="61" type="line"/>
      <point x="176" y="61" type="line"/>
      <point x="188" y="119" type="line"/>
    </contour>
    <contour>
      <point x="304" y="119" type="line"/>
      <point x="304" y="119" type="line"/>
      <point x="292" y="61" type="line"/>
      <point x="349" y="61" type="line"/>
      <point x="361" y="119" type="line"/>
    </contour>
    <contour>
      <point x="361" y="119" type="line"/>
      <point x="361" y="119" type="line"/>
      <point x="349" y="61" type="line"/>
      <point x="407" y="61" type="line"/>
      <point x="419" y="119" type="line"/>
    </contour>
    <contour>
      <point x="118" y="61" type="line"/>
      <point x="118" y="61" type="line"/>
      <point x="105" y="3" type="line"/>
      <point x="163" y="3" type="line"/>
      <point x="176" y="61" type="line"/>
    </contour>
    <contour>
      <point x="176" y="61" type="line"/>
      <point x="176" y="61" type="line"/>
      <point x="163" y="3" type="line"/>
      <point x="221" y="3" type="line"/>
      <point x="234" y="61" type="line"/>
    </contour>
    <contour>
      <point x="234" y="61" type="line"/>
      <point x="234" y="61" type="line"/>
      <point x="221" y="3" type="line"/>
      <point x="279" y="3" type="line"/>
      <point x="292" y="61" type="line"/>
    </contour>
    <contour>
      <point x="292" y="61" type="line"/>
      <point x="292" y="61" type="line"/>
      <point x="279" y="3" type="line"/>
      <point x="336" y="3" type="line"/>
      <point x="349" y="61" type="line"/>
    </contour>
  </outline>
</glyph>
